<?xml version="1.0" encoding="utf-8"?>
<!-- Generator: Adobe Illustrator 24.2.3, SVG Export Plug-In . SVG Version: 6.00 Build 0)  -->
<svg version="1.1" id="Layer_1" xmlns="http://www.w3.org/2000/svg" xmlns:xlink="http://www.w3.org/1999/xlink" x="0px" y="0px"
	 viewBox="0 0 2000 1333" style="enable-background:new 0 0 2000 1333;" xml:space="preserve">
<style type="text/css">
	.st0{display:none;fill:#E1F3FF;}
	.st1{fill:#233862;}
	.st2{fill:#E5E5FF;}
	.st3{fill:#FFFFFF;}
	.st4{fill:#5254CF;}
	.st5{fill:none;stroke:#5254CF;stroke-width:15;stroke-miterlimit:10;}
	.st6{fill:none;stroke:#CCCCCC;stroke-width:15;stroke-miterlimit:10;}
	.st7{fill:none;stroke:#2B478B;stroke-width:2;stroke-linecap:round;stroke-linejoin:round;}
	.st8{fill:none;stroke:#2B478B;stroke-width:2;stroke-linecap:round;stroke-linejoin:round;stroke-dasharray:0.9086,0,0,0;}
	
		.st9{fill:none;stroke:#2B478B;stroke-width:2;stroke-linecap:round;stroke-linejoin:round;stroke-dasharray:9.0855,9.0855,0.9086,0,0,0;}
	.st10{opacity:0.2;fill:#5254CF;}
	.st11{opacity:0.78;fill:#5254CF;}
	.st12{fill:#D3671E;}
	.st13{fill:#F1A34F;}
	.st14{opacity:0.4;fill:#D86713;}
	.st15{display:none;fill:#233862;}
	.st16{fill:#2B478B;}
	.st17{fill:#739AF0;}
	.st18{fill:#D9935C;}
	.st19{fill:#4A75CB;}
	.st20{fill:#2B478B;stroke:#FFFFFF;stroke-miterlimit:10;}
	.st21{fill:#FFB147;}
	.st22{fill:#E27F2B;}
	.st23{fill:#963333;}
	.st24{fill:none;stroke:#2B478B;stroke-width:15;stroke-miterlimit:10;}
	.st25{fill:#FFFFFF;stroke:#2B478B;stroke-width:5;stroke-miterlimit:10;}
	.st26{opacity:0.8;fill:#2B478B;}
	.st27{font-family:'Roboto-Regular';}
	.st28{font-size:7.9107px;}
	.st29{fill:#FFA412;}
	.st30{fill:#2C3A64;}
	.st31{fill:#ED985F;}
	.st32{fill:#FFB27D;}
	.st33{opacity:0.4;fill:#E5E5FF;}
	.st34{fill:#CBCBFF;}
	.st35{fill:#9192FF;}
	.st36{fill:#B7B7FF;}
	.st37{fill:#E0E0FF;}
	.st38{opacity:0.6;fill:#B7B7FF;}
	.st39{opacity:0.6;fill:#1B1B43;}
	.st40{clip-path:url(#SVGID_2_);}
	.st41{fill:#FFBC96;}
	.st42{fill:#1B1B43;}
	.st43{fill:#D28572;}
	.st44{fill:#656590;}
	.st45{opacity:0.2;fill:#1B1B43;}
	.st46{fill:#FFF5E8;}
	.st47{opacity:0.4;fill:#FE5B52;}
</style>
<rect y="0.5" class="st0" width="1999.5" height="1332"/>
<g>
	<path class="st1" d="M1642.6,1040.7H298.7c-2.6,0-4.7,2.1-4.7,4.7l0,0c0,2.6,2.1,4.7,4.7,4.7h1343.9c2.6,0,4.7-2.1,4.7-4.7l0,0
		C1647.2,1042.8,1645.1,1040.7,1642.6,1040.7z"/>
	<g>
		<g>
			<path class="st2" d="M955.8,578H801.3c-17,0-30.8-13.8-30.8-30.8v-94.4c0-17,13.8-30.8,30.8-30.8h154.5c17,0,30.8,13.8,30.8,30.8
				v94.4C986.6,564.2,972.8,578,955.8,578z"/>
			<g>
				<rect x="898.4" y="503.8" class="st3" width="77.2" height="9.7"/>
				<rect x="898.4" y="486.4" class="st4" width="56.4" height="9.7"/>
			</g>
			<g>
				<circle class="st5" cx="825.4" cy="500" r="29.6"/>
				<path class="st6" d="M853.2,510c-5.5,15.4-22.4,23.4-37.8,17.8"/>
			</g>
		</g>
		<g>
			<path class="st2" d="M955.8,397.1H801.3c-17,0-30.8-13.8-30.8-30.8v-94.4c0-17,13.8-30.8,30.8-30.8h154.5
				c17,0,30.8,13.8,30.8,30.8v94.4C986.6,383.3,972.8,397.1,955.8,397.1z"/>
			<g>
				<rect x="884" y="322.9" class="st3" width="77.2" height="9.7"/>
				<rect x="884" y="305.5" class="st4" width="56.4" height="9.7"/>
			</g>
			<g>
				<circle class="st5" cx="825.4" cy="319.1" r="29.6"/>
				<path class="st6" d="M853.2,329.1c-5.5,15.4-22.4,23.4-37.8,17.8"/>
			</g>
		</g>
		<g>
			<g>
				
					<image style="overflow:visible;opacity:0.75;" width="235" height="175" xlink:href="D674B33D.png"  transform="matrix(1 0 0 1 963 324)">
				</image>
				<g>
					<path class="st2" d="M1155.8,487.6h-154.5c-17,0-30.8-13.8-30.8-30.8v-94.4c0-17,13.8-30.8,30.8-30.8h154.5
						c17,0,30.8,13.8,30.8,30.8v94.4C1186.6,473.8,1172.8,487.6,1155.8,487.6z"/>
				</g>
			</g>
			<g>
				<rect x="1084" y="413.4" class="st3" width="77.2" height="9.7"/>
				<rect x="1084" y="396" class="st4" width="56.4" height="9.7"/>
			</g>
			<g>
				<circle class="st5" cx="1025.4" cy="409.5" r="29.6"/>
				<path class="st6" d="M1053.2,419.5c-5.5,15.4-22.4,23.4-37.8,17.8"/>
			</g>
		</g>
		<g>
			<g>
				<line class="st7" x1="1045.5" y1="267.1" x2="1050.5" y2="267.1"/>
				<line class="st8" x1="1059.6" y1="267.1" x2="1060.5" y2="267.1"/>
				<path class="st9" d="M1060.5,267.1h35.4c10.4,0,18.9,10,18.9,22.4v27.6"/>
				<line class="st7" x1="1114.8" y1="317.1" x2="1114.8" y2="322.1"/>
			</g>
		</g>
		<g>
			<g>
				<line class="st7" x1="1184.1" y1="551.9" x2="1179.1" y2="551.9"/>
				<line class="st8" x1="1170" y1="551.9" x2="1169.1" y2="551.9"/>
				<path class="st9" d="M1169.1,551.9h-35.4c-10.4,0-18.9-10-18.9-22.4V502"/>
				<line class="st7" x1="1114.8" y1="502" x2="1114.8" y2="497"/>
			</g>
		</g>
	</g>
	<g>
		<g>
			<path class="st10" d="M1068,1040.4c0,0,85.9-92.3,14.5-192.1c-63.3-88.6-137.2-82.6-191.4-46.6c-23.1,15.3-89.6,1.9-146.2-88.3
				C667.7,590.4,400,665,448.8,854.2c23.6,91.6-71.9,94.9-23.2,186.4L1068,1040.4z"/>
			<path class="st11" d="M876.3,681.8h-15.6l-0.1-29.5l-33.4,0.1v0l-10,0v0l-0.1,0l0,9.4l0.1,0.1l0,19.9H682.7v358.4h193.6v0.1h26.3
				V681.8H876.3z M687,945.1l0,0.7h0V945.1z M871.9,990.2l-51.1,0.2l0,0l-15.5,0.1v0l-0.1,0l0,14.5l0.1,0.1l0.1,30.6H687v-80.1
				h184.8V990.2z M728.3,945.7l0.2,0L728.3,945.7L728.3,945.7z M871.9,945.8h-18.1l-0.1-74.6l-51.5,0.2v0l-15.5,0.1v0l-0.1,0l0,14.5
				l0.1,0.1l0.1,59.7h15.5l0,0h-47.6h-0.6l-0.1-45.9l-51.5,0.2l0,0l-15.4,0.1v-34.4h184.8V945.8z M871.9,855.9h-52.7l-0.1-45.9
				l-51.5,0.2v0l-15.5,0.1v0l-0.1,0l0,14.5l0.1,0.1l0.1,31.1H687v-80.1h184.8V855.9z M871.9,766.1H687V686h184.8V766.1z"/>
			<g>
				<g>
					
						<rect x="659.5" y="965.4" transform="matrix(3.083279e-03 -1 1 3.083279e-03 -312.5543 1697.53)" class="st12" width="71.1" height="80.2"/>
					<polygon class="st13" points="759.4,970.2 695.2,970 695,1041.1 759.2,1041.3 					"/>
					<polygon class="st14" points="695,968.9 759.4,969.2 759.3,991.8 694.8,1040.1 					"/>
				</g>
				<g>
					
						<rect x="609" y="992.5" transform="matrix(3.085641e-03 -1 1 3.085641e-03 -388.3805 1646.9769)" class="st12" width="45.7" height="51.5"/>
					<polygon class="st13" points="673.1,994.6 631.9,994.4 631.8,1040.1 673,1040.3 					"/>
					<polygon class="st14" points="631.9,994.4 673.3,994.6 673.2,1009.1 631.8,1040.1 					"/>
				</g>
			</g>
			<path class="st15" d="M822.8,1015.9c-0.2-2.4-0.7-4.6-1.5-6.7c-0.1-0.4-0.3-0.8-0.5-1.2c-0.1-0.3-0.2-0.6-0.4-0.8
				c-0.1-0.3-0.3-0.6-0.5-0.9c-0.2-0.3-0.4-0.7-0.5-1c-0.9-1.6-2-3-3.2-4.2c0,0,0,0,0,0c-0.4-0.4-0.9-0.8-1.3-1.2
				c-0.4-0.3-0.7-0.6-1.1-0.8c-0.5-0.4-1.1-0.7-1.7-1c-0.2-0.1-0.4-0.2-0.6-0.3c-1.8-0.9-3.8-1.4-5.8-1.6c-0.3,0-0.6,0-0.9,0h-8.4
				c-10,0-18.1,9.9-18.1,22.2c0,12.3,8.1,22.2,18.1,22.2h8.4c0.3,0,0.6,0,0.9,0c2.1-0.1,4-0.7,5.8-1.6c0.2-0.1,0.4-0.2,0.6-0.3
				c0.6-0.3,1.1-0.7,1.7-1c0.4-0.3,0.7-0.5,1.1-0.8c0.5-0.4,0.9-0.8,1.3-1.2c0,0,0,0,0,0c1.2-1.2,2.3-2.6,3.2-4.2
				c0.2-0.3,0.4-0.6,0.5-1c0.2-0.3,0.3-0.6,0.5-0.9c0.1-0.3,0.3-0.6,0.4-0.8c0.2-0.4,0.3-0.8,0.5-1.2c0.8-2.1,1.3-4.4,1.5-6.7
				c0.1-0.7,0.1-1.5,0.1-2.3S822.8,1016.6,822.8,1015.9z"/>
			<path class="st16" d="M858,996.9h-56.1c-1.1,0-2-0.9-2-2.1s0.9-2.1,2-2.1H858c1.1,0,2,0.9,2,2.1S859.1,996.9,858,996.9z"/>
			<path class="st16" d="M858.5,932.1h-57.2c-1.1,0-2-0.9-2-2.1s0.9-2.1,2-2.1h57.2c1.1,0,2,0.9,2,2.1S859.6,932.1,858.5,932.1z"/>
			<g>
				<path class="st17" d="M893.9,835.5c3.4,0.8,18.7,1,29.5-1.4c2.2-0.5,4.3-1.1,6-1.9c2-0.9,3.6-2,4.3-3.3c1.2-2,3.4-9,6.1-18.1
					c7.2-25.1,17.3-66.5,17.3-66.5s-20.4,4.2-24.7,7.7c-4.3,3.5-8.1,59.8-12.2,61.4c-0.6,0.2-1.6,0.7-2.9,1.3
					c-0.1,0-0.1,0.1-0.2,0.1c-0.8,0.4-1.7,0.8-2.6,1.3c-8.4,4.3-22.3,12.1-23.8,13.8C888.9,832.3,889,834.3,893.9,835.5z"/>
				<path class="st17" d="M933,776.4c0-1,0.1-1.9,0.3-2.9c2.6-14.4,23.5-29.2,23.9-29.2l0,0.3c0,2.2,3.5,6.3,8.8,6.6
					c6.3,0.4,14.2-3.2,14.2-6.9c0,0,3.6,0.5,4.8,0.6c5.1,0.6,15.2,3.3,19.6,6.6c4.1,3.1-1.7,22.8-5.3,36.8
					c-1.5,5.9-2.7,10.8-2.5,12.9c0.1,1.1,1,15.4,1.9,28.3c0.7,10.7,1.3,20.4,1.4,21c0,1.2-6,5.5-16.1,8.7c-2.4,0.8-5.1,1.5-8,2.1
					c-5.2,1.1-11.1,1.8-17.5,1.7c-2.1,0-4.1-0.1-5.9-0.3C937.9,861.4,932.9,844.9,933,776.4z"/>
				<path class="st18" d="M980.1,744.2c0.1-5.6,0-12.3-0.7-17.9l-22.3,3.7c0,0,0,6.8,0.1,14.4c0,0-0.6,7,8,8
					C973.8,753.4,980.4,749.6,980.1,744.2z"/>
				<path class="st1" d="M961.4,1041c2.8-1.7,1.2-14.5,1.2-14.5s-13.2-10.4-14.9-2.4c-1.8,8-12.4,11.7-18.5,12.7
					c-4.2,0.7-5.7,2.9-6.1,4.2L961.4,1041z"/>
				<path class="st19" d="M981.9,819.7c0,21.4,10.4,15.6,16.6,9.9c-0.8-12.9-1.4-58.8-1.4-58.8S981.9,789.1,981.9,819.7z"/>
				<path class="st19" d="M914.5,816.2c0.4,3,5.2,11.8,8.9,17.8c2.2-0.5,4.3-1.1,6-1.9c2-0.9,3.6-2,4.3-3.3c1.2-2,3.4-9,6.1-18.1
					c-1.9-11.2-3.8-22.3-3.8-22.3l-0.6-7.4c0,0.6-8.7,33.2-12.6,33.9c-2.4,0.5-4.1-0.1-5.5-0.3c-0.1,0-0.1,0.1-0.2,0.1
					C916.4,815.2,915.5,815.7,914.5,816.2z"/>
				<path class="st1" d="M1001.8,1041c2.8-1.7,1.2-14.5,1.2-14.5s-13.2-10.4-14.9-2.4c-1.8,8-12.4,11.7-18.5,12.7
					c-4.2,0.7-5.7,2.9-6.1,4.2L1001.8,1041z"/>
				<path class="st1" d="M982.3,719.9c0,0,14.9-23.5-13.7-25.1c0,0-10.7,1.3-13.2-1.2c0,0-8.3,12.7-0.6,26.2
					C962.6,733.4,982.3,719.9,982.3,719.9z"/>
				<path class="st18" d="M957.7,732.1c2.2,1.7,8.5,3.4,10.4,3.6c0,0,9.4-2.1,11.2-3.1c2.7-1.6,2.5-4.9,2.6-9.4
					c0.2-5.4,0.7-9.6,0.1-12.7c-0.7-3.7-3.1-5.8-9.6-6.4c-12.1-1-17.1,2-17.3,6c-0.1,1.1-0.1,2.1-0.1,3.1
					C954.5,725.9,955.5,730.3,957.7,732.1z"/>
				<path class="st1" d="M954.8,717.4c0.1,7.3,2.1,11.6,3.5,12.2c1.6,0.6,3.6,1.1,5.6,1.5c0.7,0.1,1.3,0.1,1.3-0.3
					c0-1.2-1.6-2.6-0.4-3.6c1.2-1.1,7.6-1.4,8.2,0.9c0.3,1.1-1.8,3.1-0.4,3.2c0.4-0.1,0.9-0.2,1.3-0.3c2.3-0.6,4.2-1.7,5-2.2
					c2.7-1.6,2.5-4.1,3.1-8.6c0.4-2.9,0.4-1.3,0,3c-0.4,4.5,0.4,7.4-2.6,9.4c-1.7,1.1-11.3,5.4-11.3,5.4c0.1-2.3-8.1-4.2-10.2-5.9
					C955.7,730.5,954.7,726.9,954.8,717.4z"/>
				<path class="st16" d="M999.9,850.6c0,1.2-6,5.5-16.1,8.7c-0.8,0.3-1.7,0.5-2.5,0.8c0,0,0,0,0,0c-0.9,11.1-3.5,26.7-5.8,41.9
					c0,0,0,0,0,0c-0.6,3.9-1.2,7.8-1.7,11.6c-1.4,9.9-2.5,19-2.6,25.5v0.1c0,3,2.5,10.4,2.7,12.2c0.1,1.1,0.2,2.2,0.3,3.3
					c0.3,4.7,0.2,10.2-0.2,16.1c-1.7,25.7-8.4,58.6-10.9,60c-4.8,2.8-13.6,0-18-0.7c-1.8-0.3-3.3-1.8-3.2-3.7
					c2.2-42.6-4.1-102-8.7-138.5c-0.1-1-0.2-1.9-0.4-2.8c-0.6-4.3-0.9-8.3-1.2-11.9c-0.2-3.2-0.3-6.1-0.4-8.6c0-0.8,0-1.5,0-2.2
					c0-2.3,1.8-17.2,1.9-85.8l0,0c0-1.6,1.3-2.9,2.9-2.9h41.9c4.1,0,7.3,3.3,7.3,7.4c-0.1,5.2,0.1,12.5,1.3,19.5
					c1.5,9.5,4.9,18.4,11.7,20.5c0,0,0,0,0,0c0,0.1,0.2,0.5,0.5,1.2c0,0,0,0,0,0c0.1,1.7,0.1,3.5,0.2,5.3c0,0.4,0,0.7,0,1.1
					c0,0.2,0,0.4,0,0.6c0,0.4,0,0.7,0.1,1.1c0,0.6,0.1,1.2,0.1,1.8c0,0.5,0.1,1,0.1,1.4c0,0.9,0.1,1.9,0.2,2.8c0,0.3,0,0.6,0.1,0.9
					c0.1,1.2,0.2,2.5,0.3,3.7c0,0.4,0.1,0.8,0.1,1.2c0,0.2,0,0.4,0,0.6c0,0.5,0.1,1,0.1,1.5c0,0.5,0.1,1,0.1,1.6
					C1000.1,847.6,999.9,849.3,999.9,850.6z"/>
				<path class="st1" d="M973.9,970.6c-1.7,25.7-8.4,58.6-10.9,60c-4.8,2.8-13.6,0-18-0.7c-1.8-0.3-3.3-1.8-3.2-3.7
					c2.2-42.6-4.1-102-8.7-138.5c-0.1-1-0.2-1.9-0.4-2.8c-0.6-4.3-0.9-8.3-1.2-11.9c2.2-14.5,14.8-15.3,26.1,14.7
					C956.2,897.6,974.3,964.8,973.9,970.6z"/>
				<path class="st20" d="M1000.4,937.8c0.3,3,3.8,10,4.2,11.7c5.7,23.1,2.6,77.9-0.3,80.1c-4.4,3.4-13.5,1.8-18,1.7
					c-1.9,0-3.5-1.4-3.7-3.2c-3.5-43.7-18.2-103.6-27.6-138.9c-4.7-17.8-5.4-30.8-5.4-30.8s44-27,48.8-12.2
					C1002.7,859.1,997.7,915,1000.4,937.8z"/>
				<g>
					<path class="st21" d="M955.6,688.2c0.3-0.3,0.6-0.7,1-1c1.4-1.4,3.2-2.5,5.2-3.4c7.7-3.2,14-0.2,18,2.8
						c0.4,0.3,0.8,0.6,1.1,0.9c2.2,1.8,3.4,3.5,3.4,3.5s3.7,5.1,3.6,15.8l-38.4,0.4C949.5,707.2,948.9,695.6,955.6,688.2z"/>
					<g>
						<path class="st22" d="M977.1,706.9l-2.1,0c0-0.6,0.1-14.5,5.3-20c0.4,0.3,0.3,0.2,0.7,0.5
							C975.9,692.2,977.1,706.7,977.1,706.9z"/>
						<path class="st22" d="M960.4,707.1c-0.4-8.5-3.7-17.5-4.6-19.1c0.3-0.4,0.4-0.4,0.7-0.7c0.6,1.1,5.6,10.3,6.1,19.8l25.2-0.3
							c0,0-12.8,2.9-20.5,3c-7.7,0.1-17.9-2.5-17.9-2.5L960.4,707.1z"/>
					</g>
				</g>
				<path class="st16" d="M986.4,745.2c0,0-13,15.1-13.7,28.3l6.6,0.4c0,0,1.7-14.7,11.4-27.7c0,0-1.5-0.4-2-0.5
					C988,745.5,986.4,745.2,986.4,745.2z"/>
				<path class="st16" d="M954.1,745c-9.3,14.1-10.3,28.8-10.3,28.8l-6.7-0.1c0.5-10.4,7.1-21.8,10.7-27.2
					C947.8,746.5,952.4,745.3,954.1,745z"/>
				<path class="st17" d="M996.8,826.3c-0.3,15.5,1.6,46.3,1.6,46.3h9.1c4.3-21.7,5.8-35.6,5.8-43.2c0-1.5,0-2.9,0-4.2
					c-0.1-6.5-0.2-10.3-0.2-10.3c1.7-39.4-6.1-60.4-8.6-63.3c-2.5-2.9-13.8-5.5-13.8-5.5s-3.7,10.9-5.3,19.6
					c-1.5,8.7,12,45.5,11.4,58.1C996.8,824.6,996.8,825.4,996.8,826.3z"/>
				<path class="st18" d="M998.4,872.6c0,0-1.9-30.8-1.6-46.3c7.3-2.4,13.2-1.8,16.5-1.1c0,1.3,0,2.7,0,4.2c0,7.6-1.5,21.6-5.8,43.2
					c1.9,8,1.8,16.6-1.5,18.1s-14.2-4.2-14.1-6.7C992.1,881.5,998.4,872.6,998.4,872.6z"/>
				<path class="st18" d="M873.5,837c0.9-3.3,1.6-5.1,3.8-6.7c3.3-2.3,7.1-1.7,10-1.2c2.2,0.4,4.5-0.4,5.5-0.7
					c5.1-3.4,18-10.4,24.3-13.6c4.4,2.5,9.7,7.5,12.2,17.3c-9.8,4.3-31.4,4.3-35.5,3.3c0,0-3.8,2.8-6.7,3c-1.1,0.1-2.5-0.2-3.8-0.7
					c-2-0.7-4.2,0-5.7,1.8c-1.4,1.7-2.9,1.7-3.7,1.7C873,841.3,872.9,839,873.5,837z"/>
			</g>
			<path class="st16" d="M861.5,1032.1h-68c-1.2,0-3.8-0.9-3.8-2.1c0-1.2,8.7-2.1,9.9-2.1h57.6V849.6c0-7.3,5.9-13.2,13.2-13.2h14.7
				c1.2,0,2.1,0.9,2.1,2.1c0,1.2-0.9,2.1-2.1,2.1h-14.7c-5,0-9,4-9,9V1032.1z"/>
			<path class="st16" d="M802.6,1032.1h-49.3c-1.2,0-2.1-0.9-2.1-2.1c0-1.2,0.9-2.1,2.1-2.1h45.1V849.6c0-7.3,5.9-13.2,13.2-13.2
				h14.7c1.2,0,2.1,0.9,2.1,2.1c0,1.2-0.9,2.1-2.1,2.1h-14.7c-5,0-9,4-9,9V1032.1z"/>
			<path class="st16" d="M858.1,867.5h-56.3c-1.1,0-2-0.9-2-2.1s0.9-2.1,2-2.1h56.3c1.1,0,2,0.9,2,2.1S859.2,867.5,858.1,867.5z"/>
			<path class="st23" d="M888.7,842h-18.2c-1.9,0-3.5-1.6-3.5-3.5s1.6-3.5,3.5-3.5h18.2c1.9,0,3.5,1.6,3.5,3.5S890.6,842,888.7,842z
				"/>
			<path class="st16" d="M870.5,836.4c-6.6,0-12.1,4.9-13.1,11.3h4.3c0.9-4,4.5-7.1,8.8-7.1c1.2,0,2.1-0.9,2.1-2.1
				C872.6,837.4,871.7,836.4,870.5,836.4z"/>
			<path class="st23" d="M829.7,842h-18.2c-1.9,0-3.5-1.6-3.5-3.5s1.6-3.5,3.5-3.5h18.2c1.9,0,3.5,1.6,3.5,3.5S831.7,842,829.7,842z
				"/>
			<path class="st16" d="M811.5,836.4c-6.6,0-12.1,4.9-13.1,11.3h4.3c0.9-4,4.5-7.1,8.8-7.1c1.2,0,2.1-0.9,2.1-2.1
				C813.7,837.4,812.7,836.4,811.5,836.4z"/>
			<g>
				<polygon class="st12" points="789.2,965.7 859.3,964.4 859.5,1027.9 789.4,1027.9 				"/>
				<polygon class="st13" points="768.2,965.8 824.3,965.5 824.5,1028 768.4,1027.9 				"/>
				<polygon class="st14" points="824.3,965.5 768.2,965.8 768.3,985.4 824.5,1028 				"/>
			</g>
			<g>
				<path class="st1" d="M866.2,995h-8.4c-10,0-18.1,9.9-18.1,22.2c0,12.3,8.1,22.2,18.1,22.2h8.4c10,0,18.1-9.9,18.1-22.2
					C884.4,1004.9,876.3,995,866.2,995z"/>
				<ellipse class="st16" cx="866.2" cy="1018.2" rx="18.1" ry="22.2"/>
				<path class="st19" d="M877.7,1017.2c0,7.8-5.1,14-11.5,14c-6.3,0-11.5-6.3-11.5-14c0-7.8,5.1-14,11.5-14
					C872.6,1003.1,877.7,1009.4,877.7,1017.2z"/>
			</g>
			<g>
				<polygon class="st12" points="801.8,894.5 882.5,894.2 882.3,965.4 802.1,965.6 				"/>
				<polygon class="st13" points="777.8,894.6 842,894.3 842.2,965.5 777.9,965.7 				"/>
				<polygon class="st14" points="842,894.3 777.8,894.6 777.8,917.3 842.2,965.5 				"/>
			</g>
			<path class="st18" d="M893.9,835.5c0,0-6.8,4.7-8.6,3.5c-1.8-1.1,1.3-3.7-1.6-4.7C880.8,833.3,893.9,835.5,893.9,835.5z"/>
			<g>
				<g>
					<path class="st24" d="M583.8,1037.1H456.1c-4.2,0-7.7-3.4-7.7-7.7V770.7c0-4.2,3.4-7.7,7.7-7.7h127.7c4.2,0,7.7,3.4,7.7,7.7
						v258.7C591.4,1033.6,588,1037.1,583.8,1037.1z"/>
					<path class="st2" d="M591.3,1033.7H448.8c-0.1,0-0.3-0.1-0.3-0.3V775.3c0-2.8,2.2-5,5-5h132.7c2.8,0,5,2.2,5,5V1033.7z"/>
					<path class="st3" d="M591.3,935.5H448.8c-0.1,0-0.3-0.1-0.3-0.3V784.5h142.7V935.5z"/>
					<path class="st2" d="M539.3,766h-38.8c-1.1,0-2-0.9-2-2l0,0c0-1.1,0.9-2,2-2h38.8c1.1,0,2,0.9,2,2l0,0
						C541.3,765.1,540.4,766,539.3,766z"/>
					<g>
						<circle class="st3" cx="521.4" cy="984" r="20"/>
					</g>
					<polyline class="st25" points="510.9,984.5 516.9,990.5 531.9,977.5 					"/>
					<rect x="458.4" y="773" class="st26" width="26" height="8"/>
					<rect x="468.4" y="822.5" class="st16" width="8" height="75"/>
					<rect x="567.4" y="822.5" class="st16" width="4" height="75"/>
					<rect x="557.4" y="822.5" class="st16" width="8" height="75"/>
					<rect x="551.3" y="822.5" class="st16" width="4" height="75"/>
					<rect x="542.2" y="822.5" class="st16" width="6" height="75"/>
					<rect x="536.6" y="822.5" class="st16" width="1" height="75"/>
					
						<rect x="527.5" y="822.5" transform="matrix(-1 -1.224647e-16 1.224647e-16 -1 1058.0548 1720)" class="st16" width="3" height="75"/>
					<rect x="520.4" y="822.5" class="st16" width="1" height="75"/>
					<rect x="509.9" y="822.5" class="st16" width="6" height="75"/>
					
						<rect x="487.1" y="822.5" transform="matrix(-1 -1.224647e-16 1.224647e-16 -1 977.2216 1720)" class="st16" width="3" height="75"/>
					<rect x="480" y="822.5" class="st16" width="1" height="75"/>
					<rect x="504.3" y="822.5" class="st16" width="1" height="75"/>
					<rect x="492.7" y="822.5" class="st16" width="8" height="75"/>
				</g>
				<text transform="matrix(1.6614 0 0 1 468.1213 908.8564)" class="st27 st28">13254678905932</text>
			</g>
			<g>
				<path class="st29" d="M444,808.7h-4.2c0.3-0.9,0-1.8-0.7-2.1c-0.7-0.3-1.6,0.2-2,1.1c-0.1,0.3-0.2,0.7-0.1,1h-4.2
					c-0.1,0-0.3,0.1-0.4,0.2l-1.4,1.6c-0.3,0.3-0.1,0.8,0.4,0.8h11.3c0.1,0,0.3-0.1,0.4-0.2l1.4-1.6
					C444.7,809.2,444.5,808.7,444,808.7z M438.8,808.4c-0.1,0.3-0.4,0.5-0.7,0.4c-0.2-0.1-0.3-0.4-0.2-0.7c0.1-0.3,0.4-0.5,0.7-0.4
					C438.9,807.8,439,808.1,438.8,808.4z"/>
				<g>
					<path class="st30" d="M363.5,693.6l-13.7,10.7c-0.6,1,0.7,1.1,0.1,2.3c-5.6,11.4-1.8,23.6,2.9,22.4c3-0.8,3.9,4.4,3.9,4.4
						l29.3-23.7C386,709.6,375.2,687.3,363.5,693.6z"/>
					<path class="st16" d="M373.7,1029.6l-6.2,2.3c0,0-27-37.5-30.4-70.5c-0.6-5.9-0.4-11.6,0.9-16.9c0,0-0.3-1.5-0.7-4.2
						c-0.2-1.2-0.5-2.7-0.8-4.5c-0.9-5-2.1-11.9-3.5-19.8c-3.2-18.1-7.3-41.1-10.5-58.1l1.7-0.5l18.1-5.9l3.8-11.9l13.5-3.6
						c0,0,3,5.9,5.7,33.8c0.5,3.7,1,7.7,1.3,12.1c1.1,13.4,1.1,29.9-1.3,48.9c-0.6,4.8-1.4,9.9-2.4,15c-0.7,3.8-0.8,8.9-0.5,14.8
						C363.8,987.7,373.7,1029.6,373.7,1029.6z"/>
					<path class="st1" d="M366.6,882l-29.3,58.3c-0.2-1.2-0.5-2.7-0.8-4.5c-0.9-5-2.1-11.9-3.5-19.8c-3.2-18.1-7.3-41.1-10.5-58.1
						l1.7-0.5l18.1-5.9l3.8-11.9l13.5-3.6c0,0,3,5.9,5.7,33.8C365.8,873.6,366.3,877.6,366.6,882z"/>
					<path class="st16" d="M353.7,843.6l-0.7-5.8c-11.4,3-41.8-8.4-41.8-8.4s-11,9.7-9.6,32.9c0.7,11.3,2,59.5,3.3,73.8
						c0.5,5.2,0.9,8.8,1.1,10.3c0,0,0,0,0,0c0.1,0.4-0.1,0.9-0.3,1.3c-2,3.4-3.6,6.9-5,10.5c-13.2,35.3,2,78.7,2,78.7l4-1.6
						c0,0,8.7-48.3,15.7-69.7c1.2-3.6,2.3-6.5,3.4-8.2c3.1-5,5.9-13,8.5-22.7c4.9-18.2,8.8-41.9,11.4-60.2
						C346.2,874.6,353.7,843.6,353.7,843.6z"/>
					<path class="st31" d="M443.3,836.2c-2.4,2.2-9-5.3-9.8-6.3c0-0.1-0.1-0.1-0.1-0.1l2-5.5c0,0,8.5-0.3,9.9,1.1
						C446.7,826.8,446,833.9,443.3,836.2z"/>
					<path class="st31" d="M435.4,824.3l-0.8,5.7c0,0-0.4,0-1,0c-2.1-0.1-7.1-0.4-12.8-1c-8.6-0.8-18.7-2.4-22.8-4.9
						c-6.2-3.8-16.3-15.3-22.9-26.8c-0.2-0.3-0.3-0.6-0.5-0.8c-3.4-6.1-5.8-12.2-6-17.1c-0.1-3,0.2-5.5,0.8-7.7
						c0.8-2.9,2.1-5.2,3.5-7c0.2-0.3,0.4-0.6,0.7-0.8c2.3-2.7,4.5-3.8,4.5-3.8c1.1-0.5,2.4,0.1,3.6,1.5v0c1,1.1,2.2,2.7,3.3,4.8
						c0,0,0.1,0.1,0.1,0.1c0.2,0.4,0.5,0.9,0.8,1.4c0.1,0.1,0.1,0.2,0.2,0.3c0.5,1.1,1,2.2,1.6,3.4c5.8,12.6,12,31.7,17.1,37.4
						c2.2,2.4,12.3,7.3,20.4,10.8C430.7,822.4,435.4,824.3,435.4,824.3z"/>
					<path class="st32" d="M375.4,773c-3.6,1.7-7.9,2.8-13.1,3.1c-19.6,1.1-24-16.1-24.8-27.5c2.8-1,5.3-0.9,6.7-0.8
						c1.4,0.1,2.8,0.2,4,0.4c2.4-1.3,6.7-7.3,9.2-17.5l0.8,0.4l14.1,6.6c0,0-1.5,4.6-2.6,9c-0.9,3.4-1.5,6.8-1,7.7
						c1.1,0.5,1.8,0.7,1.8,0.7s0,0,0,0C370.7,755.5,373.8,763.3,375.4,773z"/>
					<path class="st17" d="M380.3,785.8c-0.1,0.4-0.3,0.8-0.5,1.2c-5,10.7-14.1,54.9-14.1,54.9c1.3,7.9-59.7-1.6-59.9-8.8
						c-2.1-7.7,7.6-20,13.1-26.2c0.7-0.8,1.3-1.6,1.8-2.5c1.4-2.2,2.2-4.7,2.5-7.3c1.1-10.3,0.7-19.9,0.8-25.7c0,0,0,0,0,0
						c1.1-0.8,2.1-1.5,3.1-2.2c1.5-1.1,2.8-2.1,3.8-3.1c1.1-1.1,1.7-2.3,1.8-3.6c0.1-1,0-2-0.1-3c0-0.5-0.1-0.9-0.2-1.4
						c-0.8-5-2.8-9.5-2.8-9.5c5.2-2.1,14.6-0.9,14.6-0.9s0,0.5,0,1.4c0,3.4,0,12.2,1.1,13.8c1.4,2.1,26.4,11.1,27.7,8.3
						c1.3-2.8-2.3-15.7-2.4-16.1c0,0,0,0,0,0c8.4,3.3,11.4,6,11.4,6C376.9,764.4,384.2,775.5,380.3,785.8z"/>
					<path class="st31" d="M372.4,737.7c0,0-1.5,4.6-2.6,9c-8.3-2.3-10.8-11-11.5-15.6L372.4,737.7z"/>
					<path class="st32" d="M374.1,742.5c0,0-19.7-4.6-16.7-16.8c3-12.3,2.5-21.1,15.3-18.7c12.7,2.4,14,7.7,14,12
						C386.7,723.4,379.3,743.4,374.1,742.5z"/>
					<path class="st30" d="M387.8,712.1c-2.1-4.4-4.6-4.2-6.2-3.4c-9.3-8.6-23.3-4.3-23.3-4.3c-3.5,8.5-6.1,14.6-6.1,14.6
						s3,3.1,11.8,3c2.7,0,5.4-1.3,7.8-3c-4.7,4.8-10.3,7.7-10.3,7.7c11-2.1,18.4-14.8,19.1-16.2c0.9,1.4,2.7,4.3,2.9,6.8
						c0.2,3.4-1,9.9,1,10.1C384.5,727.5,391,718.7,387.8,712.1z"/>
					<path class="st17" d="M382,761.1c0,0,4.8,8.3,5.5,10.4c0,0-6.2-0.2-8.7,4.5C378.8,776.1,378.2,762.2,382,761.1z"/>
					<path class="st19" d="M349.3,827c-12-0.1-22.2-12.6-28.5-22.6c1.4-2.2,2.2-4.7,2.5-7.3c1.1-10.3,0.7-19.9,0.8-25.7c0,0,0,0,0,0
						c1.1-0.8,2.1-1.5,3.1-2.2c1.5-1.1,2.8-2.1,3.8-3.1C340.8,782.7,365.6,827.2,349.3,827z"/>
					<path class="st1" d="M325.8,1041h-31.4c0,0-0.8-4.8,0.9-8.4c1.6-3.5,4-5.1,3.4-9.3c2,2.1,5.2,4.3,9.8,3.7
						c0.6,0.9,3.6,5.7,5.4,7.1C316.1,1035.6,325.2,1035.1,325.8,1041z"/>
					<path class="st1" d="M393.2,1041h-31.4c0,0-1.2-5,0.9-8.4c1.8-3,1.1-4.7-0.2-7.2c1.4,0.6,3.3,1.1,5.3,1
						c1.6-0.1,3.2-0.8,4.7-1.6c1.3,1.5,7.1,8.1,8.9,9.4C383.4,1035.6,392.5,1035.1,393.2,1041z"/>
					<g>
						<polygon class="st1" points="422.3,809.8 391.8,849.5 392.3,850.1 423.2,810.3 						"/>
						<polygon class="st16" points="423.1,810.4 454.1,810.4 421.7,850.1 392.3,850.1 						"/>
					</g>
					<path class="st32" d="M416.8,834.5c-0.1-1.6-2.2-1.5-3.7-1.5c-2.6,0-6.7-0.2-9.1-1.1c0,0,7.6-0.1,6-2.5
						c-0.3-0.4-4.1-0.1-8.2-0.1c-1.7,0-6,2.4-5.8,2.5c-3-0.4-5.8-1-6.7-1.2l0,0c-2.1-1.1-4.6-2.5-7.2-4c-6.4-3.6-13.7-8-18.7-11.6
						c-2.9-2.1-5-3.9-5.8-5.2c-1.2-2-2.5-5.2-4-9.2c-0.8-2.1-1.6-4.3-2.4-6.7c-1.4-4-2.8-8.2-4.3-12.5c-2.6-7.8-5.5-15.7-8.1-21.8
						c-1.7-3.8-3.4-7-5-8.9c-1.3-1.6-2.5-2.4-3.7-2.2c-0.2,0-0.3,0.1-0.5,0.1c0,0-6.8,1.9-6.9,15.5c0,0.8,0,1.6,0,2.4
						c0.1,2.4,0.6,5.3,1.3,8.5c1.1,5.4,3,11.6,5.4,17.9c0.7,1.7,1.3,3.4,2,5.2c5.1,12.6,11.6,24.4,17.1,28.4
						c0.2,0.2,0.4,0.3,0.7,0.5c2.3,1.5,5.7,2.9,9.6,4.3c5.6,1.9,12.2,3.6,18,5h0c3.4,0.8,6.6,1.5,9.2,2c0,0,0.4,0.1,1.2,0.3
						c0.1,0,0.2,0,0.4,0.1c2.5,0.6,7.6,1.9,12.5,3.8c6.8,2.7,11.8-0.7,14-3C415.7,837.9,416.8,835.9,416.8,834.5z"/>
					<path class="st17" d="M338.8,759.5c-9.1-2.5-16.1,4.6-16.1,4.6c0.1-13.6,6.9-15.5,6.9-15.5
						C332.4,747.5,338.1,750.5,338.8,759.5z"/>
				</g>
				<g>
					<path class="st21" d="M375.9,686.8c-4.5-1-8.3-1-11.5-0.2c-0.3,0.1-0.6,0.2-0.9,0.3l0,0c-12.3,3.7-15.4,17.9-15.4,17.9
						s-0.5,3.7-0.4,5.3c0.1,1.6,11.8,5.8,13.6,3.7c1.8-2.1,5.2-3.4,5.2-3.4s12,5.1,12.8,5.4c2.7,1.1,11.5,2.3,11.5,2.3
						C391,717.3,398.6,692,375.9,686.8z"/>
					<path class="st22" d="M398.8,719.1c-1.2-1-3.4-2.6-7.2-4.8c0,0-4.6,1-12.2-0.2c-1.1-5.4-5.1-19.1-15-27.6c0,0-0.1-0.1-0.1-0.1
						c-0.4,0.2-0.6,0.2-0.9,0.3l0,0c-0.1,0-0.2,0.1-0.3,0.1c8.4,6.3,11.9,21.1,12.9,26.5c-2.9-0.7-6.1-1.7-9.6-3.2
						c0,0,8.9,9.5,31.7,10.5C399,720.9,399.5,719.7,398.8,719.1z"/>
				</g>
				<polygon class="st1" points="422.3,809.8 453.4,809.8 454.1,810.4 423.1,810.4 				"/>
			</g>
		</g>
	</g>
	<g>
		<g>
			<path class="st33" d="M1668.2,722.9c-23.3-50.5-68.6-89.9-124.8-96.8c-44.9-5.5-90.1-6.2-135.2-9c-47.6-2.9-94.2-11.7-141.3-19.5
				c-30.2-5-56.7,2.4-85.9,13c-40,14.5-78.6,61.4-96.1,98.8c-42,90.3-18.8,203.9,18.2,291.9c1.8,4.3,14.3,38.6,18.1,38.6
				c0,0,489.7,0,489.7,0c29.5-43.3,53.8-91,67.2-140.2C1694.1,841.4,1693.9,778.7,1668.2,722.9z"/>
			<path class="st2" d="M1628.2,1010.4l-0.9-0.5c49.9-81.1,75.9-154.4,77.3-217.9c1.4-65.6-24-105.7-45.6-127.8
				c-20.7-21.2-47.9-36-76.4-41.6c-26.8-5.2-53-1.9-71.9,9.1l-0.5-0.9c19.1-11.2,45.6-14.5,72.6-9.2c28.8,5.6,56.1,20.5,77,41.9
				c21.7,22.2,47.3,62.6,45.9,128.6C1704.2,855.7,1678.2,929.2,1628.2,1010.4z"/>
			<path class="st2" d="M1072.4,904.3c-19.2-60-27.7-112.1-25.2-155c2.1-35.7,11.8-65.3,28.9-88c39-52.1,104.3-51.1,104.9-51.1l0,1
				c-0.6,0-65.4-1-104.1,50.7c-16.9,22.6-26.6,52-28.6,87.5c-2.5,42.7,5.9,94.8,25.1,154.6L1072.4,904.3z"/>
		</g>
		<g>
			<g>
				<path class="st2" d="M1524.9,911.3h-315.2c-17,0-30.8-13.8-30.8-30.8V574.9c0-17,13.8-30.8,30.8-30.8h315.2
					c17,0,30.8,13.8,30.8,30.8v305.6C1555.7,897.5,1541.9,911.3,1524.9,911.3z"/>
				<path class="st34" d="M1543,911.8h-351.4c-7.3,0-13.2-5.9-13.2-13.2V556.8c0-7.3,5.9-13.2,13.2-13.2H1543
					c7.3,0,13.2,5.9,13.2,13.2v341.8C1556.2,905.9,1550.3,911.8,1543,911.8z M1191.6,544.6c-6.7,0-12.2,5.5-12.2,12.2v341.8
					c0,6.7,5.5,12.2,12.2,12.2H1543c6.7,0,12.2-5.5,12.2-12.2V556.8c0-6.7-5.5-12.2-12.2-12.2H1191.6z"/>
			</g>
			<g>
				<rect x="1432.2" y="586.9" class="st35" width="80.3" height="5.9"/>
				<rect x="1406.9" y="612.1" class="st36" width="127.9" height="5.9"/>
				<rect x="1406.9" y="629.4" class="st36" width="115.2" height="5.9"/>
				<rect x="1406.9" y="646.8" class="st34" width="102" height="5.9"/>
				<rect x="1406.9" y="664.1" class="st34" width="127.9" height="5.9"/>
				<rect x="1406.9" y="681.4" class="st34" width="94.4" height="5.9"/>
			</g>
			<g>
				<rect x="1206.1" y="776.5" class="st36" width="122.8" height="5.9"/>
				<rect x="1206.4" y="792.4" class="st34" width="317.5" height="5.9"/>
			</g>
			<g>
				<rect x="1206.3" y="586.9" class="st3" width="147.9" height="156.5"/>
				<g>
					<rect x="1219.6" y="690.3" class="st36" width="10.3" height="36"/>
					<rect x="1238.1" y="695.3" class="st37" width="10.3" height="30.9"/>
					<rect x="1256.6" y="675.7" class="st36" width="10.3" height="50.5"/>
					<rect x="1275" y="679.3" class="st37" width="10.3" height="46.9"/>
					<rect x="1293.5" y="663.1" class="st36" width="10.3" height="63.1"/>
					<rect x="1312" y="654.4" class="st37" width="10.3" height="71.8"/>
					<rect x="1330.5" y="646.6" class="st36" width="10.3" height="79.6"/>
					<polygon class="st36" points="1241.4,670.5 1222,662.8 1222.4,661.8 1241.3,669.4 1260.5,653.5 1278.4,653.9 1332.5,620.5 
						1333,621.4 1278.7,654.9 1260.8,654.5 					"/>
				</g>
				<g>
					<rect x="1217.8" y="617.9" class="st36" width="21.1" height="8.8"/>
					<rect x="1245.8" y="622.9" class="st36" width="19.7" height="1"/>
				</g>
			</g>
			<g>
				<circle class="st3" cx="1498.7" cy="731" r="23"/>
				<g>
					<path class="st3" d="M1433.1,754.1c-12.7,0-23-10.3-23-23c0-11.5,8.4-21,19.5-22.8c1.2-0.2,2.3-0.3,3.6-0.3
						c6.8,0,12.9,3,17.1,7.7c3.7,4.1,5.9,9.5,5.9,15.4C1456.1,743.8,1445.8,754.1,1433.1,754.1z"/>
					<path class="st36" d="M1433.1,731l-3.6-22.8c1.2-0.2,2.3-0.3,3.6-0.3c6.8,0,12.9,3,17.1,7.7L1433.1,731z"/>
				</g>
			</g>
			<g>
				<g>
					<rect x="1208.8" y="820.2" class="st3" width="316" height="60.7"/>
				</g>
				<g>
					<path class="st36" d="M1525.7,881.9h-316.8v-61.5h316.8V881.9z M1209.7,881.1h315.2v-60h-315.2V881.1z"/>
					<rect x="1209.3" y="868.9" class="st36" width="316" height="0.8"/>
					<rect x="1209.3" y="856.8" class="st36" width="316" height="0.8"/>
					<rect x="1209.3" y="844.7" class="st36" width="316" height="0.8"/>
					<rect x="1209.3" y="832.5" class="st36" width="316" height="0.8"/>
					<rect x="1472.2" y="820.7" class="st36" width="0.8" height="60.7"/>
					<rect x="1419.6" y="820.7" class="st36" width="0.8" height="60.7"/>
					<rect x="1366.9" y="820.7" class="st36" width="0.8" height="60.7"/>
					<rect x="1314.2" y="820.7" class="st36" width="0.8" height="60.7"/>
					<rect x="1261.6" y="820.7" class="st36" width="0.8" height="60.7"/>
				</g>
				<path class="st35" d="M1218,871.9c4.6-6.4,5.6-14.6,9.7-21.4c2-3.3,4.7-6.5,8.3-8c6.3-2.5,7.9,5.6,8.1,10.2
					c0.2,6.7-0.9,13.9,4.6,18.9c1.8,1.7,4.3,2.7,6.7,2c3-0.8,4.8-3.5,6.3-6c4.2-7.2,6.9-15.4,9.8-23.1c1.5-3.9,3.4-8.9,7.2-11.1
					c5.5-3.1,6.1,3.8,6.1,7.4c0,4,0,8,0.1,12c0,1.9-0.4,5.9,1.9,7c1.3,0.6,2.4-0.6,3.1-1.5c0.6-0.8,1.1-1.8,1.7-2.7
					c0.6-0.8,1.2-1.3,2.2-1.4c1-0.1,1.5-0.1,2.2,0.8c0.4,0.5,0.6,1.2,0.7,1.9c0.8,3,0,6.4,1.7,9.2c0.9,1.5,3,3.1,4.9,2.8
					c3.9-0.6,4.8-6.9,5.3-9.9c0.6-4,1.2-8.1,2.3-12c1.1-4,2.6-8.7,5.6-11.7c1.2-1.1,2.7-2.3,4.4-2.1c2.5,0.3,3.3,3.1,3.9,5.1
					c1.4,4.5,2.2,9.3,2.2,14c0,3.3-1,7.4,1.2,10.2c1.2,1.5,3.2,2.4,5.1,1.9c2.8-0.7,3.5-3.4,4-5.8c0.1-0.5,0.2-1,0.4-1.5
					c0.5-1.4,0.8-1.5,2.2-1.6c1.6-0.1,1.7,0.3,2,1.7c0.3,1.4,0.1,2.8,0.5,4.1c0.5,1.7,1.7,3.3,3.7,2.7c1.8-0.5,2.8-2.5,3.4-4.2
					c1.7-4.8,1.6-10,1.8-15c0.2-3.3,0.4-6.8,2-9.8c1-1.9,3.9-5.1,6.2-3c2.9,2.7,2.7,9.2,2.7,12.8c0.1,7.7-1.2,15.5-0.1,23.1
					c0.4,2.9,1.2,7.2,4.4,8.3c4.4,1.5,7.7-3.3,8.8-6.8c0.9-2.8,1.1-5.7,1.8-8.6c0.3-1.5,0.9-4.2,2.9-3.4c1.8,0.7,2.5,3.2,4,4.4
					c5,3.7,8.1-3.5,8.7-7.3c0.9-5.6,0-11.8,2.1-17.2c0.5-1.4,1.4-2.8,2.6-3.6c3.1-2,6.1,0.8,7,3.6c0.7,2.2,0.6,4.6,0.6,6.8
					c0,2.4,0.1,4.9,0.2,7.3c0.1,4-0.3,8.1,0,12.2c0.2,2.8,1.2,5.3,3.6,6.9c6.1,4,13.1-2.2,17-6.5c4.4-4.9,7.3-10.8,9.6-16.9
					c1.1-3.1,2.3-6.3,4.1-9.1c1-1.5,3.7-5.2,6-4.2c1.5,0.7,2,3.3,2.3,4.7c0.5,2.3,0.8,4.7,1,7c0.4,4.5,0.4,9,0.5,13.5
					c0.1,3.8,0.4,9.5,4.6,11.1c6.6,2.4,9.7-7,11.6-11.4c1.5-3.6,3.4-8.5,6.9-10.7c3-1.8,5.1,1,6.2,3.5c1.1,2.4,1.6,5.1,1.6,7.7
					c0,1.8-0.1,4.1,1.9,5c4.4,1.9,8.4-5.3,10.1-8.2c1.6-2.6,2.7-5.3,4-8.1c1.6-3.4,7-10,9.2-3.4c0.8,2.5,0.5,5.2,0.4,7.7
					c-0.2,2.9-0.4,5.8-0.3,8.7c0.1,3.4,0.7,10.7,5.8,9.9c3.1-0.5,6.2-3.9,8.6-5.8c3.4-2.8,6.6-5.8,9.6-9c0.5-0.5-0.3-1.2-0.7-0.7
					c-3,3.2-6.2,6.2-9.6,9c-1.8,1.5-3.7,3-5.6,4.4c-2.5,1.7-5,0.9-6-1.7c-2-5.1-0.8-11.5-0.5-16.9c0.2-3.2-0.2-10.5-5.1-9.6
					c-2.9,0.5-4.9,3.7-6.2,6.1c-1.4,2.8-2.5,5.6-4.1,8.3c-1.5,2.7-3.3,5.8-5.9,7.6c-1.9,1.3-4.2,0.7-4.4-1.9c-0.1-1.2,0-2.4-0.1-3.6
					c-0.4-3.5-1.7-9.2-5.5-10.6c-5.2-1.9-9,6.8-10.5,10.2c-1.5,3.5-2.7,8-5.5,10.7c-2,1.9-5.2,2.6-7.2,0.4c-1.5-1.6-1.8-4.2-2.1-6.3
					c-0.8-8.1,0.4-16.5-1.9-24.5c-0.7-2.3-1.9-5.1-4.8-4.1c-4.8,1.7-6.9,7.9-8.6,12.2c-2.6,6.8-5.5,13.4-10.5,18.8
					c-2.9,3.1-7.2,7-11.7,6.9c-6-0.1-6.8-6.1-6.6-10.7c0.2-4.5,0-9-0.1-13.5c-0.1-3.6,0.4-7.9-1.4-11.2c-1.1-2.1-3.6-3.8-6-3.3
					c-2.1,0.4-3.7,2.4-4.5,4.2c-2.3,4.9-1.7,10.9-2.2,16.1c-0.3,3-0.8,8.2-4.4,9.2c-4.4,1.3-4.6-5.3-8.3-5.5c-4-0.1-4,9.4-4.7,11.9
					c-0.8,3.1-2.4,6.8-6,7.4c-2.2,0.4-3.6-1-4.5-2.8c-1.9-4.2-1.7-9.6-1.6-14.1c0.1-3.4,0.4-6.8,0.5-10.2c0.1-3.7,0.8-19.4-6.2-17.7
					c-4.8,1.2-6.1,7.4-6.5,11.5c-0.6,5.5-0.1,11.2-1.7,16.5c-0.4,1.4-1,3-2.1,4c-1.2,1-2.7,0.1-3.3-1.1c-0.4-0.9-0.4-2-0.5-2.9
					c-0.1-1.6-0.3-3.9-2.1-4.6c-2-0.8-3.7,1.3-4.3,3c-0.8,2.1-0.5,4.8-2.6,6.1c-2.1,1.4-4.5,0.1-5.6-1.9c-1.1-2.1-0.7-4.7-0.6-6.9
					c0.1-2.3,0-4.6-0.3-6.9c-0.4-3.9-1.2-8.1-2.8-11.7c-2.2-5-7.1-3.6-10-0.1c-4.9,6-6.2,15.2-7.3,22.7c-0.3,2.4-0.8,4.9-1.9,7.1
					c-0.5,1.1-1.3,2.4-2.7,2.7c-2.2,0.4-4.1-2.2-4.6-4c-0.8-3,0-13.5-6.2-10.3c-1.9,1-2.1,3.4-3.7,4.6c-2.6,1.9-2.7-2.3-2.7-3.9
					c0-2.4,0-4.8-0.1-7.3c0-3.2,0.2-6.6-0.2-9.9c-0.3-2.1-0.9-4.5-3-5.3c-5.8-2.3-10.1,7-11.6,10.9c-3.3,8.3-5.9,17.1-10.5,24.8
					c-2.5,4.2-6.9,7.4-11.2,3.4c-3.1-2.8-4.2-6.9-4.3-11c-0.1-5.3,1.5-15.9-4.8-18.6c-5.5-2.4-11.3,5.2-13.6,9.1
					c-4,6.7-5,14.8-9.5,21.1C1216.7,871.9,1217.6,872.4,1218,871.9L1218,871.9z"/>
			</g>
		</g>
		<g>
			<g>
				<path class="st37" d="M1517.2,1040h-62.4c-7.2,0-13.1-5.9-13.1-13.1v-35.8c0-7.2,5.9-13.1,13.1-13.1h62.4
					c7.2,0,13.1,5.9,13.1,13.1v35.8C1530.4,1034.2,1524.5,1040,1517.2,1040z"/>
				<rect x="1443.7" y="1004.9" class="st36" width="84.7" height="1"/>
				<path class="st36" d="M1486.1,1013.9c-3.9,0-7.1-3.2-7.1-7.1v-1.9h14.2v1.9C1493.2,1010.7,1490,1013.9,1486.1,1013.9z
					 M1479.9,1005.9v0.9c0,3.4,2.7,6.1,6.1,6.1c3.4,0,6.1-2.7,6.1-6.1v-0.9H1479.9z"/>
				<path class="st36" d="M1502.8,981.2h-1v-12.7c0-1.7-1.4-3.1-3.1-3.1h-25.3c-1.7,0-3.1,1.4-3.1,3.1v12.7h-1v-12.7
					c0-2.3,1.8-4.1,4.1-4.1h25.3c2.3,0,4.1,1.8,4.1,4.1V981.2z"/>
				<rect x="1467.4" y="978" class="st36" width="4.8" height="5.2"/>
			</g>
			<rect x="1499.9" y="978" class="st36" width="4.8" height="5.2"/>
		</g>
		<g>
			<rect x="1215.3" y="987.4" class="st37" width="63.1" height="52.6"/>
			<rect x="1210.6" y="983.7" class="st36" width="72.5" height="11.1"/>
			<path class="st38" d="M1278.4,1040h-63.1v-45.5C1215.3,994.6,1240.8,1033,1278.4,1040z"/>
		</g>
		<g>
			<g>
				<path class="st3" d="M1629.1,590.2c-21.6,0-39.2,17.5-39.2,39.2c0,13.5,6.8,25.4,17.2,32.4l-1.5,18l14.7-12.3
					c2.8,0.6,5.8,1,8.8,1c21.6,0,39.2-17.5,39.2-39.2C1668.2,607.7,1650.7,590.2,1629.1,590.2z"/>
				<path class="st4" d="M1605,681l1.6-19c-10.8-7.4-17.2-19.6-17.2-32.7c0-21.9,17.8-39.7,39.7-39.7c21.9,0,39.7,17.8,39.7,39.7
					s-17.8,39.7-39.7,39.7c-2.9,0-5.8-0.3-8.6-1L1605,681z M1629.1,590.7c-21.3,0-38.6,17.3-38.6,38.6c0,12.8,6.3,24.8,17,32
					l0.2,0.2l-1.4,17.1l13.9-11.7l0.2,0.1c2.9,0.7,5.8,1,8.7,1c21.3,0,38.6-17.3,38.6-38.6C1667.7,608,1650.4,590.7,1629.1,590.7z"
					/>
			</g>
			<g>
				<g>
					<g>
						<rect x="1624.1" y="637.6" class="st3" width="11.6" height="12.1"/>
						<path class="st4" d="M1636.2,650.2h-12.7V637h12.7V650.2z M1624.6,649.1h10.6v-11.1h-10.6V649.1z"/>
					</g>
					<g>
						<path class="st3" d="M1639.4,629.2c0-5.4-4.5-9.7-9.9-9.4c-4.9,0.2-8.9,4.4-9,9.3c0,1.8,0.4,3.4,1.3,4.8
							c1.5,2.5,2.4,5.4,2.4,8.3v2.1h11.6v-2.2c0-2.9,0.9-5.7,2.4-8.2C1638.9,632.6,1639.4,630.9,1639.4,629.2z"/>
						<path class="st4" d="M1636.2,644.9h-12.7v-2.7c0-2.7-0.8-5.4-2.3-8.1c-0.9-1.5-1.3-3.3-1.3-5.1c0.1-5.2,4.3-9.6,9.5-9.8
							c2.8-0.1,5.4,0.8,7.3,2.7c2,1.9,3.1,4.5,3.1,7.2c0,1.8-0.5,3.5-1.3,5c-1.5,2.6-2.3,5.3-2.3,7.9V644.9z M1624.6,643.9h10.6
							v-1.7c0-2.8,0.8-5.7,2.4-8.5c0.8-1.4,1.2-2.9,1.2-4.5c0-2.5-1-4.8-2.8-6.5c-1.8-1.7-4.1-2.6-6.6-2.5c-4.6,0.2-8.5,4.2-8.5,8.8
							c0,1.6,0.4,3.2,1.2,4.6c1.6,2.8,2.4,5.7,2.4,8.6V643.9z"/>
					</g>
					<g>
						<path class="st3" d="M1627.7,628.1c-0.7,1-2,1.4-2.7,0.9c-0.8-0.5-0.8-1.8-0.1-2.9c0.7-1,2-1.4,2.7-0.9
							S1628.5,627.1,1627.7,628.1z"/>
						<path class="st4" d="M1625.8,629.8c-0.4,0-0.8-0.1-1.1-0.3c-0.5-0.4-0.8-1-0.8-1.7c0-0.7,0.2-1.3,0.6-1.9c0.4-0.6,1-1,1.6-1.2
							c0.7-0.2,1.3-0.1,1.8,0.2c0.5,0.4,0.8,1,0.8,1.7c0,0.7-0.2,1.3-0.6,1.9l0,0c-0.4,0.6-1,1-1.6,1.2
							C1626.3,629.7,1626.1,629.8,1625.8,629.8z M1626.8,625.5c-0.1,0-0.3,0-0.4,0.1c-0.4,0.1-0.8,0.4-1.1,0.9
							c-0.3,0.4-0.4,0.9-0.4,1.3c0,0.4,0.2,0.7,0.4,0.9c0.2,0.2,0.6,0.2,0.9,0.1c0.4-0.1,0.8-0.4,1.1-0.9l0,0
							c0.3-0.4,0.4-0.9,0.4-1.3c0-0.4-0.2-0.7-0.4-0.9C1627.2,625.5,1627,625.5,1626.8,625.5z"/>
					</g>
				</g>
				<g>
					
						<rect x="1613.9" y="611.7" transform="matrix(0.6218 -0.7832 0.7832 0.6218 128.5763 1497.0602)" class="st4" width="1" height="7.5"/>
					
						<rect x="1628.7" y="602.9" transform="matrix(0.9995 -3.200236e-02 3.200236e-02 0.9995 -18.6191 52.4492)" class="st4" width="1" height="10.1"/>
					
						<rect x="1639.9" y="613.5" transform="matrix(0.7168 -0.6973 0.6973 0.7168 37.5039 1320.2795)" class="st4" width="8.5" height="1"/>
				</g>
			</g>
		</g>
		<g>
			<g>
				<path class="st3" d="M1137.8,639.6c0-19-15.4-34.4-34.4-34.4s-34.4,15.4-34.4,34.4s15.4,34.4,34.4,34.4c3.1,0,6.1-0.4,9-1.2
					l12,10l-1.3-15C1131.9,661.6,1137.8,651.3,1137.8,639.6z"/>
				<path class="st4" d="M1124.9,684l-12.7-10.6c-2.9,0.8-5.9,1.2-8.9,1.2c-19.3,0-34.9-15.7-34.9-34.9c0-19.3,15.7-34.9,34.9-34.9
					s34.9,15.7,34.9,34.9c0,11.3-5.5,21.9-14.7,28.5L1124.9,684z M1112.5,672.3l11.2,9.4l-1.2-14.1l0.2-0.2
					c9.1-6.4,14.5-16.7,14.5-27.8c0-18.7-15.2-33.9-33.9-33.9s-33.9,15.2-33.9,33.9s15.2,33.9,33.9,33.9c3,0,6-0.4,8.9-1.2
					L1112.5,672.3z"/>
			</g>
			<polygon class="st4" points="1102.9,650.4 1093.1,640.6 1093.8,639.9 1102.5,648.6 1112.6,625.6 1113.6,626 			"/>
		</g>
		<g>
			<g>
				<path class="st4" d="M1290.6,684.8l-9.2,5.4l-98.2,57.5c-3,1.8-6.6,1.4-8-0.9l0,0c-1.4-2.3-0.2-5.6,2.8-7.5l95.8-60.9l9.2-5.9
					L1290.6,684.8z"/>
				<path class="st39" d="M1290.6,684.8l-9.2,5.4c-1.8-1.7-3.4-3.7-4.7-5.9c-1.2-1.9-2.1-3.9-2.8-6l9.2-5.9L1290.6,684.8z"/>
			</g>
			<path class="st3" d="M1277.6,687.8c-1.5,0.9-3.4,0.4-4.2-1c-0.9-1.5-0.4-3.4,1-4.2c1.5-0.9,3.4-0.4,4.2,1
				C1279.5,685,1279.1,686.9,1277.6,687.8z"/>
			<circle class="st4" cx="1324.1" cy="655.8" r="48.9"/>
			<g>
				<defs>
					<circle id="SVGID_1_" cx="1324.1" cy="655.8" r="39.6"/>
				</defs>
				<use xlink:href="#SVGID_1_"  style="overflow:visible;fill:#FFFFFF;"/>
				<clipPath id="SVGID_2_">
					<use xlink:href="#SVGID_1_"  style="overflow:visible;"/>
				</clipPath>
				<g class="st40">
					<rect x="1295.6" y="669.2" class="st36" width="12.4" height="76.3"/>
					<rect x="1317.9" y="659.2" class="st37" width="12.4" height="86.8"/>
					<rect x="1340.2" y="648.4" class="st36" width="12.4" height="96.2"/>
				</g>
				<g class="st40">
					
						<rect x="1280.7" y="642.9" transform="matrix(0.9525 -0.3047 0.3047 0.9525 -133.787 429.8711)" class="st36" width="59.8" height="1.5"/>
					<path class="st36" d="M1335.2,641.2l-1.3-0.9l3.7-5.3l-5.4-1.9l0.5-1.5l6,2.1c0.3,0.1,0.6,0.4,0.7,0.7c0.1,0.4,0,0.7-0.2,1
						L1335.2,641.2z M1338.3,635.2C1338.3,635.2,1338.3,635.2,1338.3,635.2L1338.3,635.2z M1338.1,634.5
						C1338.1,634.5,1338.1,634.5,1338.1,634.5L1338.1,634.5z"/>
				</g>
			</g>
		</g>
		<g>
			<g>
				<g>
					<path class="st41" d="M1226.3,1019.5c-6.2,0.1-15.1,0.2-20.9,0.3c0.1-2.8,0.2-5.6,0.3-8.1c0.3-6.3,0.6-11.2,0.6-11.2l17.8-0.1
						c0,0-0.1,1.8,0,4.4C1224.3,1008.8,1224.8,1014.6,1226.3,1019.5z"/>
					<path class="st42" d="M1233.2,1028.3c-3.4-1.1-5.6-4.5-6.9-8.7c-6.2,0.1-15.1,0.2-20.9,0.3c-0.2,6.6-0.1,13.2,0.5,16.9
						c0.3,1.6,1.7,2.8,3.3,2.8h30.6c2.5,0,4.6-2.1,4.4-4.6C1244,1032,1240.5,1030.5,1233.2,1028.3z"/>
					<path class="st43" d="M1224.2,1004.8l-18.5,6.9c0.3-6.3,0.6-11.2,0.6-11.2l17.8-0.1C1224.2,1000.4,1224.1,1002.2,1224.2,1004.8
						z"/>
					<path class="st44" d="M1214.9,1039.3c-0.7-3.1-2-5.3-3.9-6.4c-2.5-1.5-5.2-0.8-5.3-0.7l-0.3-1c0.1,0,3.2-0.9,6.1,0.8
						c2.2,1.3,3.6,3.7,4.3,7.1L1214.9,1039.3z"/>
				</g>
				<g>
					<path class="st41" d="M1134.8,997.1c0,0-2,4.6-3.4,10.2c-0.7,2.7-1.2,5.6-1.4,8.4c-5.9-2.1-14.2-5.1-19.7-7.1
						c2.5-6.2,5.2-12.3,6.7-15.5l0-0.1c0.6-1.4,1-2.2,1-2.2L1134.8,997.1z"/>
					<path class="st42" d="M1133.4,1026.3c-2.8-2.2-3.6-6.2-3.4-10.6c-5.9-2.1-14.2-5.1-19.7-7.1c-2.5,6.1-4.8,12.3-5.5,16
						c-0.3,1.6,0.6,3.2,2.1,3.8l28.6,10.8c2.3,0.9,5.1-0.3,5.7-2.7C1142.1,1033.6,1139.4,1031,1133.4,1026.3z"/>
					<path class="st43" d="M1134.8,997.1c0,0-2,4.6-3.4,10.2l-14.9-12.6l0.6-1.6l0-0.1c0.6-1.4,1-2.2,1-2.2L1134.8,997.1z"/>
					<path class="st44" d="M1111.6,1030l-0.9-0.5c3.8-7.4-2.9-11-3.2-11.1l0.5-0.9C1108,1017.5,1115.9,1021.7,1111.6,1030z"/>
				</g>
				<path class="st4" d="M1232.9,1004l-32.8,2.6l-6.9-117l-10.2-38.5l-13.3-50.3l-0.7-2.6L1166,786l-0.5-1.8l6.3-0.6l33.9-3l2,9.3v0
					l20.3,91.8c0.7,3,1.1,6,1.2,9.1L1232.9,1004z"/>
				<path class="st4" d="M1185.8,825l-2.6,26l-4.2,42.1c-0.5,4.8-1.6,9.6-3.2,14.2l-34.9,96.6l-29.3-11.3l27.3-98.8
					c7-40.7,5.9-71.9,7.7-91.7c0.1-1.2,0.2-2.4,0.4-3.6c0.7-6.1,1.9-10.9,3.8-14.4l15.4,1.8l10.9,1.3l2.4,10l0.5,2L1185.8,825z"/>
				<path class="st39" d="M1207.7,789.9l0.4,3.9c0,0-46,12.4-61.6,8.3c0.1-1.2,0.2-2.4,0.4-3.6c0.7-6.1,1.9-10.9,3.8-14.4l15.4,1.8
					l-0.5-1.8l6.3-0.6l33.9-3L1207.7,789.9z"/>
				<polygon class="st42" points="1192.8,890.1 1177.4,829.4 1164.8,825.4 1165.2,824.4 1178.3,828.6 1178.4,828.9 1193.8,889.8 
									"/>
				<path class="st42" d="M1216.4,892.8l-0.4-1c8.1-3,12.5-5.8,12.5-5.9l0.6,0.9C1228.9,886.9,1224.6,889.7,1216.4,892.8z"/>
				<path class="st42" d="M1177,903.1c-0.1,0-7.9-0.8-15.5-2.8l0.3-1c7.6,2,15.3,2.8,15.4,2.8L1177,903.1z"/>
				
					<rect x="1128.5" y="973.8" transform="matrix(0.3452 -0.9385 0.9385 0.3452 -189.6763 1707.636)" class="st42" width="1" height="31.8"/>
				
					<rect x="1199.7" y="996.4" transform="matrix(0.9975 -7.028105e-02 7.028105e-02 0.9975 -67.0572 87.9331)" class="st42" width="32.8" height="1"/>
			</g>
			<path class="st21" d="M1163.2,709.7l-13.9,5.6c-4,1.6-7.3,4.8-9,8.8l-11.7,28c-2.3,5.6-0.8,12.1,3.9,16l0,0
				c3.8,3.2,9.1,4.2,13.8,2.4l9.9-3.6L1163.2,709.7z"/>
			<g>
				<path class="st41" d="M1259.5,684.3c-2.6,1.3-5.6,6.8-4.5,8.7c0.9,1.6,3.1-0.6,3.8-1.3c1.3-1.4,4.7-5.1,2.8-7.1
					C1261.1,683.9,1260.3,683.9,1259.5,684.3z"/>
				<path class="st41" d="M1253.2,686.3c-2.2,1.9-3.6,8-1.9,9.6c1.3,1.3,2.8-1.4,3.3-2.3c0.9-1.7,3.2-6.1,0.8-7.6
					C1254.6,685.5,1253.9,685.7,1253.2,686.3z"/>
				<path class="st41" d="M1249,689.3c-2.2,1.9-3.7,7.6-2.1,9.1c1.3,1.2,2.8-1.4,3.3-2.2c0.9-1.6,3.3-5.8,1-7.2
					C1250.5,688.6,1249.7,688.8,1249,689.3z"/>
				<path class="st41" d="M1245,690.8c-2.2,1.9-3.7,7.6-2.1,9.1c1.3,1.2,2.8-1.4,3.3-2.2c0.9-1.6,3.3-5.8,1-7.2
					C1246.5,690,1245.7,690.2,1245,690.8z"/>
			</g>
			<path class="st21" d="M1163.2,709.9l-14.5,24.9c0,0,3.8,41.2,1,46.2c-2.7,5.1-8.9,9-5.1,11.9c3.8,2.9,33.6,7.9,65.9,0.4
				c8.9-2.5,2.7-7.2,0.7-9.4c-2.1-2.2-4.8-56.7-4.8-56.7l-18.6-16.9l-13.7-3.7L1163.2,709.9z"/>
			<path class="st45" d="M1187.5,710.3c-2.6,4.5-32.9,9.1-24.3-0.6l8.8-1.8L1187.5,710.3z"/>
			<g>
				<path class="st21" d="M1226.8,739.7l-12-17.7c-2.8-4.5-7.3-7.7-12.5-8.7l-14.5-2.9l8.6,32.2c0,0,13.4,18.8,25.5,23.2
					c10.9,3.9,25.3-2.5,33.2-45l-18-2.5L1226.8,739.7z"/>
				<path class="st41" d="M1264.9,695.5c-1.8-0.2-8.1,9.2-8.1,9.2l-10.1,3.4c-3.7,1.3-6.7,3.9-8.4,7.5l-1.3,2.7l18,2.5
					c0.3-1.6,0.6-3.2,0.9-4.9C1262.1,710.2,1269,696,1264.9,695.5z"/>
			</g>
			<g>
				<path class="st43" d="M1190.3,670.6l3.7,5.1c0.6,0.9,0.2,2-0.8,2.4l-3.9,1.5l-2.8-6.1L1190.3,670.6z"/>
				<path class="st41" d="M1166.7,698.3c0.9-9.3,0.5-18.6,0.5-18.6l16.6,1.2c-0.1,1.9-0.2,3.8-0.1,5.7c0.1,3,0.5,6.1,0.9,9.1
					c0.3,1.6,0.6,3.2,0.9,4.8L1166.7,698.3z"/>
				<path class="st43" d="M1184.7,695.7c-7-2.9-9.7-9.2-9.7-9.2l8.8,0.1C1183.9,689.6,1184.2,692.7,1184.7,695.7z"/>
				<path class="st46" d="M1166.7,698.3l-3.5,11.4c8,1.9,16.2,2,24.6,0.6l-2.2-9.9L1166.7,698.3z"/>
				<path class="st41" d="M1189.9,662l1.7,23c0.2,1-0.4,1.9-1.3,2.7c-1.5,1.4-3.5,2-5.5,1.9l-11.8-0.5l-8.4-9.4l6.5-20.1l11.8-0.2
					L1189.9,662z"/>
				<path class="st42" d="M1170.5,675.7c0,0,3.1,9.7-3.5,14.5c-7.1-2.3-20.2-23.8-3.9-30.6c0,0,4.5-11.5,16.7-7.2
					c10.8,3.7,13.6,10.3,13.6,10.3s-7.6,5.7-16.5,0.4C1177.1,663.1,1178,674.6,1170.5,675.7z"/>
				<path class="st41" d="M1174.9,671.8c1.9,2.4,1.7,5.7-0.4,7.5c-2.2,1.7-5.5,1.2-7.4-1.2c-1.9-2.4-1.7-5.7,0.4-7.5
					C1169.7,668.9,1173,669.4,1174.9,671.8z"/>
				<path class="st42" d="M1172.5,677.3c0-0.2-1.1-4.1-3.8-3.5l-0.2-0.8c2.8-0.6,4.3,2.4,4.7,4.1L1172.5,677.3z"/>
				
					<ellipse transform="matrix(0.2298 -0.9732 0.9732 0.2298 253.5311 1673.2295)" class="st47" cx="1183.9" cy="676.4" rx="3.4" ry="3.4"/>
			</g>
			<path class="st42" d="M1148.3,795.1c-3.1-0.7-4.9-1.9-5.4-3.5c-0.8-2.7,1.9-5.7,4.4-8.4c0.4-0.4,0.7-0.8,1.1-1.2
				c0.7-0.8,1.1-1.7,1.3-2.7c2.3-10.7-1.5-44-1.5-44.4l1-0.1c0.2,1.4,3.8,33.8,1.5,44.7c-0.2,1.1-0.8,2.2-1.6,3.1
				c-0.3,0.4-0.7,0.8-1.1,1.2c-2.1,2.4-4.8,5.3-4.1,7.4c0.4,1.2,2,2.2,4.7,2.8L1148.3,795.1z"/>
			<path class="st42" d="M1208.1,794.3l0-1c3.5-0.2,5.7-1,6.2-2.4c0.6-1.4-0.5-3.6-2.8-5.9c-0.6-0.6-1-1.4-1.2-2.2
				c-1.9-8.3-3.8-35.8-3.8-36.1l1-0.1c0,0.3,2,27.7,3.8,36c0.1,0.7,0.5,1.2,0.9,1.7c2.7,2.6,3.7,5.1,3,7
				C1214.5,793.1,1212.1,794.1,1208.1,794.3z"/>
			<polygon class="st42" points="1224.9,744.3 1224,743.8 1236.8,717.7 1255.1,720.2 1255,721.2 1237.4,718.8 			"/>
		</g>
		<g>
			<path class="st42" d="M1534.6,680c-6.1-3.7-7.5-14.2-1.8-17.4c5.7-3.2,9.3-0.3,9.3-0.3s19-6.9,26.2,10.7
				c5.4,13.3,1.1,20.2,5.8,26.9c5.4,7.6,14,14.5,2.7,27.9l-26.3-6.4l-6.9-32.3L1534.6,680z"/>
			<g>
				<g>
					<path class="st41" d="M1625.4,976.5l-19.3,8.5c0,0,2.8,7.2,5.1,15.5l19.8-6.3L1625.4,976.5z"/>
					<path class="st42" d="M1631.1,994.2l-19.8,6.3c2.7,9.5,4.9,20.6,1.8,24.3c-4,4.7-7.6,8.6-8.4,11.9c-0.5,1.9,1.5,3.5,3.2,2.6
						l25.6-12.9c4.2-2.1,6.1-7.2,4.2-11.6L1631.1,994.2z"/>
					
						<rect x="1612.7" y="1003.9" transform="matrix(0.9544 -0.2986 0.2986 0.9544 -225.8735 530.5812)" class="st44" width="21.2" height="1"/>
					<path class="st44" d="M1609.3,1029.9l-0.2-1c4.9-1,7.8-2.8,8.5-5.4c1.2-4.1-3.7-9-3.8-9l0.7-0.7c0.2,0.2,5.4,5.3,4.1,10.1
						C1617.8,1026.7,1614.7,1028.8,1609.3,1029.9z"/>
				</g>
				<g>
					<path class="st41" d="M1550.9,995.2l-22.3,2.1c0,0,0.6,7.9-0.1,15.9l21.5-0.3L1550.9,995.2z"/>
					<path class="st42" d="M1528.5,1013.2c-0.6,7-2.2,14.1-6.1,15.7c-8.2,3.4-14.8,5.8-14.1,10.6h31.7c4.8,0,8.7-3.7,8.9-8.5l1-18.2
						L1528.5,1013.2z"/>
					
						<rect x="1538.4" y="1008.5" transform="matrix(1.664769e-02 -0.9999 0.9999 1.664769e-02 494.6524 2540.458)" class="st44" width="1" height="20.6"/>
					<path class="st44" d="M1521.9,1032.8c-1.4,0-3-0.2-4.8-0.6l0.2-1c4.5,1,7.6,0.7,8.9-0.9c1.7-2.1,0-5.9-0.1-6l0.9-0.4
						c0.1,0.2,2,4.4-0.1,7.1C1526,1032.1,1524.3,1032.8,1521.9,1032.8z"/>
				</g>
				<path class="st4" d="M1550.6,1000.5c-0.3,0.1-0.5,0.2-0.7,0.2c-4.5,1-19.2,0-19.2,0c-0.7-0.1-1.3-0.3-1.9-0.5
					c-13.8-5-12.9-29.1-10.8-50.2c1.9-19.3-6.2-118.1-0.6-151.6l34.9-7.6l0.2,5.9l0.4,12l0.7,21.2c0,0,1.3,20.5,3.1,46.3
					c2.7,38.6,6.5,88.9,8.5,99.2C1568.6,991.7,1556.2,998.9,1550.6,1000.5z"/>
				<path class="st4" d="M1629.6,979.1c-0.8,0.9-1.6,1.7-2.5,2.4c-4.7,3.6-11,4.9-16.6,6.4c-1,0.3-2,0.5-3,0.6
					c-5.2,0.6-10.8-0.5-13.2-4.9c-12.4-22.6-26.4-67.4-37.4-107.5c-8.1-29.2-14.6-56-17.9-69.6c-1.4-6-2.2-9.5-2.2-9.5l15.8-0.5
					l26.9-0.8c0.7,3.6,1.6,7.4,2.5,11.4c9.2,39.2,27.3,93.1,34.4,113.7c4.3,12.3,10.7,23.4,13.5,36.3
					C1631.3,964,1634.8,973.2,1629.6,979.1z"/>
				<path class="st39" d="M1581.9,807.2c-11,1.8-20.7,2-29,1.4c-5.2-0.4-9.9-1.1-14-2c-14.1-3.1-21.5-8.2-21.5-8.2l34.9-7.6l0.2,5.9
					l26.9-0.8C1580.1,799.4,1580.9,803.2,1581.9,807.2z"/>
				<polygon class="st42" points="1556.3,876.3 1545.5,838.1 1534.4,834.1 1534.8,833.1 1546.3,837.3 1546.4,837.6 1557.3,876 				
					"/>
				<path class="st42" d="M1622.4,983.8l-0.9-0.5c5.2-9-5.2-36.8-18.4-72c-12.8-34.2-28.7-76.7-34.5-114.7l1-0.2
					c5.7,37.8,21.7,80.3,34.5,114.5C1617.3,946.4,1627.8,974.4,1622.4,983.8z"/>
			</g>
			<g>
				<path class="st41" d="M1524.8,765.9c-1.2,8.7-3.1,20.1-3.1,20.1h-20.3l5-27.2l1.2-6.8c0,0,17.5,4.1,18.3,4.1
					C1526.1,756.1,1525.6,760.5,1524.8,765.9z"/>
				<path class="st43" d="M1524.8,765.9l-0.9,2l-17.6-9.2l1.2-6.8c0,0,17.5,4.1,18.3,4.1C1526.1,756.1,1525.6,760.5,1524.8,765.9z"
					/>
				<path class="st42" d="M1520.4,759.7c0,0,3.3,19.6-3.1,38.6c0,0,31.9,9.8,62-2.6l-6.9-44l2.3-22.4l-46.1,0.5L1513,735
					L1520.4,759.7z"/>
				<path class="st42" d="M1587.8,726.9c-2-5.8-6.7-10.3-12.6-12.1l-8.7-2.6c-3.5,5.1-9.7,11.5-18.8,11.5c-10.7,0-17.4-6.1-21-11.1
					l-6,1.5c-6.4,1.6-11.4,6.6-12.9,13l-6.7,29l19.3,3.7l0.5-22.1l50.2-2.3l1.3,16.5c0,0,14.5-6.3,24.1,0.2L1587.8,726.9z"/>
				<path class="st41" d="M1609.7,725c-2.8,5.4-6.5,29-8.2,47.4c-0.6,6-2.3,10.8-4.7,14.3c-3.5,5.1-8.5,7.5-13.3,6.9
					c-1.9-0.2-3.7-0.8-5.4-1.8c-8.3-4.9-7.2-25.9-6.3-35.3c0.3-2.8,0.6-4.6,0.6-4.6c4.9-2.7,12.6-3.1,12.6-3.1
					c0.1-1.1,0.2-2.1,0.4-3.2c1.1-9.5,2.6-20.2,4-27.4c1.5-8,4.6-5,4.6-5c1.5-2.8,3.9-0.4,3.9-0.4c2.1-4.5,4.6-0.3,4.6-0.3
					c3.2-4.6,5,2.3,5,2.3s10-8.2,11.7-5.8C1620,710.1,1613.7,717.3,1609.7,725z"/>
				<g>
					<rect x="1487.5" y="780.8" class="st3" width="43.2" height="5.2"/>
					<path class="st4" d="M1506,786h-44.6c-2.1,0-4.1-1.2-5-3.2l-17.4-37.7c-0.6-1.3,0.3-2.7,1.7-2.7h41.8c2,0,3.9,1.2,4.7,3
						L1506,786z"/>
				</g>
				<path class="st41" d="M1520.7,786c-0.5,2-1.3,3.9-2.3,5.5c-2.4,4-6.2,6.8-12.1,7.5c-2,0.3-4.3,0.3-6.8,0
					c-20.4-2-26.3-13.2-26.3-13.2s-2.3-4.7,2.6-3.7c0,0,0.9-3,4.6,0.1c0,0-0.4-3.7,3.2-0.3c0,0-0.5-3.8,3.5-0.5
					c4,3.3,7.1,4.2,11.9,4.4C1503.8,786.2,1520.7,786,1520.7,786z"/>
				<g>
					
						<rect x="1519.3" y="737.6" transform="matrix(0.9983 -5.804152e-02 5.804152e-02 0.9983 -40.8922 89.4732)" class="st4" width="1" height="22.2"/>
					<path class="st4" d="M1545.5,731.7c-2.4,0-4.6-0.3-6.4-0.7c-6.1-1.4-9.7-4.3-9.8-4.4l0.7-0.8c0.1,0.1,14,11.3,34.1-0.7l0.5,0.9
						C1557.2,730.4,1550.7,731.7,1545.5,731.7z"/>
					
						<rect x="1571.5" y="741.6" transform="matrix(0.9971 -7.604917e-02 7.604917e-02 0.9971 -52.2337 121.7147)" class="st4" width="1" height="10.2"/>
					<path class="st4" d="M1556.4,756.8c-3.3,0-6.1-2.5-6.4-5.8l-0.8-7.3l14.2-0.9l-0.4,7.9c-0.2,3.4-3,6.1-6.4,6.1
						C1556.5,756.8,1556.4,756.8,1556.4,756.8z M1550.3,744.7l0.7,6.3c0.3,2.8,2.7,4.9,5.5,4.8c2.9,0,5.2-2.3,5.4-5.2l0.4-6.7
						L1550.3,744.7z"/>
				</g>
				
					<rect x="1570" y="761.1" transform="matrix(0.1416 -0.9899 0.9899 0.1416 605.0253 2221.001)" class="st43" width="26.1" height="1"/>
				<g>
					
						<rect x="1602.5" y="712.4" transform="matrix(0.9839 -0.1789 0.1789 0.9839 -101.9601 298.2649)" class="st43" width="0.8" height="4.3"/>
					
						<rect x="1597.9" y="712.5" transform="matrix(0.9839 -0.1789 0.1789 0.9839 -102.0579 297.4382)" class="st43" width="0.8" height="4.3"/>
					
						<rect x="1594" y="712.7" transform="matrix(0.9839 -0.1789 0.1789 0.9839 -102.1662 296.7518)" class="st43" width="0.8" height="4.3"/>
					
						<rect x="1607.3" y="711.7" transform="matrix(0.9369 -0.3497 0.3497 0.9369 -148.5941 607.3669)" class="st43" width="0.8" height="6.9"/>
				</g>
				<path class="st43" d="M1585,748.7l-13.2,7.7c0.3-2.8,0.6-4.6,0.6-4.6C1577.2,749,1585,748.7,1585,748.7z"/>
				<path class="st47" d="M1596.8,786.6c-3.5,5.1-8.5,7.5-13.3,6.9c-0.1-0.3-0.1-0.7-0.1-1c0-4.4,3.6-8,8-8
					C1593.5,784.5,1595.4,785.3,1596.8,786.6z"/>
				<path class="st47" d="M1518.4,791.5c-2.4,4-6.2,6.8-12.1,7.5c0-0.2,0-0.5,0-0.7c0-4.4,3.6-8,8-8
					C1515.8,790.4,1517.2,790.8,1518.4,791.5z"/>
				<path class="st43" d="M1488.7,787.4c-2-0.4-4.6-3.5-5.4-5.2l0.7-0.4c0.9,1.7,3.3,4.5,4.9,4.8L1488.7,787.4z"/>
				<path class="st43" d="M1483.8,788c-1.7-1.8-3.3-4-4-5.5l0.7-0.3c0.6,1.4,2.1,3.6,3.8,5.3L1483.8,788z"/>
				<path class="st43" d="M1479.1,787.9c-1.7-1.8-3.3-4-4-5.5l0.7-0.3c0.6,1.4,2.1,3.6,3.8,5.3L1479.1,787.9z"/>
			</g>
			<g>
				<path class="st41" d="M1566.5,712.2c-3.5,5.1-9.7,11.5-18.8,11.5c-10.7,0-17.4-6.1-21-11.1l11-2.7c0.3-2,0.5-3.9,0.7-5.7
					c0.1-1.4,0.3-2.8,0.4-4.1c0.2-2.1,0.3-4.1,0.4-5.7c0.1-2.3,0.2-4,0.2-4.9c0-0.5,0-0.8,0-0.8l15.4-6.2c0,0-0.5,20.1,4.1,27.4
					L1566.5,712.2z"/>
				<path class="st43" d="M1551.7,696.1c0,0-4.1,4.8-13.3,8.1c0.1-1.4,0.3-2.8,0.4-4.1c0.2-2.1,0.3-4.1,0.4-5.7L1551.7,696.1z"/>
				<path class="st41" d="M1535.3,669.9c0,0-7.9,21.4-2.2,25.4c5,3.5,11.7,3.9,18.2,2.2l4.3-14.6l-2.6-14.2L1535.3,669.9z"/>
				<path class="st42" d="M1553.3,683.1c0,0-5.6,2.1-7.9-5.7c-1.9-6.3-10.1-7.5-10.1-7.5l3.3-3.1l15.9-0.4l5.8,7.1l-2,9.3
					L1553.3,683.1z"/>
				<ellipse transform="matrix(0.5 -0.866 0.866 0.5 184.7756 1690.0786)" class="st41" cx="1556" cy="685" rx="6.5" ry="5.1"/>
				<path class="st42" d="M1554.2,687.8l-0.8,0c0,0,0.1-4.9,4.9-5.4l0.1,0.8C1554.3,683.6,1554.2,687.6,1554.2,687.8z"/>
				<g>
					<circle class="st42" cx="1534.2" cy="680.3" r="0.9"/>
					<path class="st42" d="M1541.1,681.5c0,0.6-0.5,1.1-1.1,1.1c-0.6,0-1.1-0.5-1.1-1.1c0-0.6,0.5-1.1,1.1-1.1
						C1540.6,680.5,1541.1,681,1541.1,681.5z"/>
					<path class="st42" d="M1536.2,678.3h-2.6c-0.4,0-0.7-0.3-0.7-0.7l0,0c0-0.4,0.3-0.7,0.7-0.7h2.6c0.4,0,0.7,0.3,0.7,0.7l0,0
						C1536.8,678,1536.5,678.3,1536.2,678.3z"/>
					<path class="st42" d="M1542.7,680.2l-2.9-1.2c-0.3-0.1-0.5-0.5-0.4-0.9l0,0c0.1-0.3,0.5-0.5,0.9-0.4l2.9,1.2
						c0.3,0.1,0.5,0.5,0.4,0.9l0,0C1543.5,680.1,1543.1,680.3,1542.7,680.2z"/>
					<path class="st42" d="M1533.8,687c-0.2,0-0.3-0.1-0.4-0.2c-0.5-1.3-0.5-2.2,0-2.9c0.5-0.7,1.4-0.8,1.9-0.8l1-1.9
						c0.1-0.2,0.3-0.3,0.5-0.2c0.2,0.1,0.3,0.3,0.2,0.5l-1.2,2.4l-0.3,0c0,0-1-0.1-1.4,0.5c-0.3,0.4-0.3,1.1,0.1,2.1
						c0.1,0.2,0,0.4-0.2,0.5C1533.9,687,1533.9,687,1533.8,687z"/>
					<g>
						<path class="st42" d="M1534,690.4c1.5,2.1,3.4,1.2,4.7,0.1C1536.9,690.6,1535.3,690.5,1534,690.4z"/>
						<path class="st3" d="M1538.7,690.5c0.7-0.6,1.3-1.3,1.4-1.5c0,0,0,0,0,0c-3.8,0.2-6.4,0-6.8-0.1c0,0,0,0,0,0.1
							c0.2,0.6,0.5,1.1,0.8,1.5C1535.3,690.5,1536.9,690.6,1538.7,690.5z"/>
					</g>
					<path class="st47" d="M1547.7,686.3c0,1.5-1.2,2.7-2.7,2.7c-1.5,0-2.7-1.2-2.7-2.7s1.2-2.7,2.7-2.7
						C1546.5,683.6,1547.7,684.8,1547.7,686.3z"/>
				</g>
			</g>
		</g>
	</g>
</g>
</svg>
