<?xml version="1.0" encoding="utf-8"?>
<svg width="1361px" height="609px" viewBox="0 0 1361 609" version="1.1" xmlns="http://www.w3.org/2000/svg">
  <title>Group 21</title>
  <desc>Created with Sketch.</desc>
  <g id="Ant-Design-Pro-3.0" stroke="none" stroke-width="1" fill="none" fill-rule="evenodd">
    <g id="账户密码登录-校验" transform="translate(-79.000000, -82.000000)">
      <g id="Group-21" transform="translate(77.000000, 73.000000)">
        <g id="Group-18" opacity="0.8" transform="translate(74.901416, 569.699158) rotate(-7.000000) translate(-74.901416, -569.699158) translate(4.901416, 525.199158)">
          <ellipse id="Oval-11" fill="#CFDAE6" opacity="0.25" cx="63.5748792" cy="32.468367" rx="21.7830479" ry="21.766008"/>
          <ellipse id="Oval-3" fill="#CFDAE6" opacity="0.599999964" cx="5.98746479" cy="13.8668601" rx="5.2173913" ry="5.21330997"/>
          <path d="M38.1354514,88.3520215 C43.8984227,88.3520215 48.570234,83.6838647 48.570234,77.9254015 C48.570234,72.1669383 43.8984227,67.4987816 38.1354514,67.4987816 C32.3724801,67.4987816 27.7006688,72.1669383 27.7006688,77.9254015 C27.7006688,83.6838647 32.3724801,88.3520215 38.1354514,88.3520215 Z" id="Oval-3-Copy" fill="#CFDAE6" opacity="0.45"/>
          <path d="M64.2775582,33.1704963 L119.185836,16.5654915" id="Path-12" stroke="#CFDAE6" stroke-width="1.73913043" stroke-linecap="round" stroke-linejoin="round"/>
          <path d="M42.1431708,26.5002681 L7.71190162,14.5640702" id="Path-16" stroke="#E0B4B7" stroke-width="0.702678964" opacity="0.7" stroke-linecap="round" stroke-linejoin="round" stroke-dasharray="1.405357899873153,2.108036953469981"/>
          <path d="M63.9262187,33.521561 L43.6721326,69.3250951" id="Path-15" stroke="#BACAD9" stroke-width="0.702678964" stroke-linecap="round" stroke-linejoin="round" stroke-dasharray="1.405357899873153,2.108036953469981"/>
          <g id="Group-17" transform="translate(126.850922, 13.543654) rotate(30.000000) translate(-126.850922, -13.543654) translate(117.285705, 4.381889)" fill="#CFDAE6">
            <ellipse id="Oval-4" opacity="0.45" cx="9.13482653" cy="9.12768076" rx="9.13482653" ry="9.12768076"/>
            <path d="M18.2696531,18.2553615 C18.2696531,13.2142826 14.1798519,9.12768076 9.13482653,9.12768076 C4.08980114,9.12768076 0,13.2142826 0,18.2553615 L18.2696531,18.2553615 Z" id="Oval-4" transform="translate(9.134827, 13.691521) scale(-1, -1) translate(-9.134827, -13.691521) "/>
          </g>
        </g>
        <g id="Group-14" transform="translate(216.294700, 123.725600) rotate(-5.000000) translate(-216.294700, -123.725600) translate(106.294700, 35.225600)">
          <ellipse id="Oval-2" fill="#CFDAE6" opacity="0.25" cx="29.1176471" cy="29.1402439" rx="29.1176471" ry="29.1402439"/>
          <ellipse id="Oval-2" fill="#CFDAE6" opacity="0.3" cx="29.1176471" cy="29.1402439" rx="21.5686275" ry="21.5853659"/>
          <ellipse id="Oval-2-Copy" stroke="#CFDAE6" opacity="0.4" cx="179.019608" cy="138.146341" rx="23.7254902" ry="23.7439024"/>
          <ellipse id="Oval-2" fill="#BACAD9" opacity="0.5" cx="29.1176471" cy="29.1402439" rx="10.7843137" ry="10.7926829"/>
          <path d="M29.1176471,39.9329268 L29.1176471,18.347561 C23.1616351,18.347561 18.3333333,23.1796097 18.3333333,29.1402439 C18.3333333,35.1008781 23.1616351,39.9329268 29.1176471,39.9329268 Z" id="Oval-2" fill="#BACAD9"/>
          <g id="Group-9" opacity="0.45" transform="translate(172.000000, 131.000000)" fill="#E6A1A6">
            <ellipse id="Oval-2-Copy-2" cx="7.01960784" cy="7.14634146" rx="6.47058824" ry="6.47560976"/>
            <path d="M0.549019608,13.6219512 C4.12262681,13.6219512 7.01960784,10.722722 7.01960784,7.14634146 C7.01960784,3.56996095 4.12262681,0.670731707 0.549019608,0.670731707 L0.549019608,13.6219512 Z" id="Oval-2-Copy-2" transform="translate(3.784314, 7.146341) scale(-1, 1) translate(-3.784314, -7.146341) "/>
          </g>
          <ellipse id="Oval-10" fill="#CFDAE6" cx="218.382353" cy="138.685976" rx="1.61764706" ry="1.61890244"/>
          <ellipse id="Oval-10-Copy-2" fill="#E0B4B7" opacity="0.35" cx="179.558824" cy="175.381098" rx="1.61764706" ry="1.61890244"/>
          <ellipse id="Oval-10-Copy" fill="#E0B4B7" opacity="0.35" cx="180.098039" cy="102.530488" rx="2.15686275" ry="2.15853659"/>
          <path d="M28.9985381,29.9671598 L171.151018,132.876024" id="Path-11" stroke="#CFDAE6" opacity="0.8"/>
        </g>
        <g id="Group-10" opacity="0.799999952" transform="translate(1054.100635, 36.659317) rotate(-11.000000) translate(-1054.100635, -36.659317) translate(1026.600635, 4.659317)">
          <ellipse id="Oval-7" stroke="#CFDAE6" stroke-width="0.941176471" cx="43.8135593" cy="32" rx="11.1864407" ry="11.2941176"/>
          <g id="Group-12" transform="translate(34.596774, 23.111111)" fill="#BACAD9">
            <ellipse id="Oval-7" opacity="0.45" cx="9.18534718" cy="8.88888889" rx="8.47457627" ry="8.55614973"/>
            <path d="M9.18534718,17.4450386 C13.8657264,17.4450386 17.6599235,13.6143199 17.6599235,8.88888889 C17.6599235,4.16345787 13.8657264,0.332739156 9.18534718,0.332739156 L9.18534718,17.4450386 Z" id="Oval-7"/>
          </g>
          <path d="M34.6597385,24.809694 L5.71666084,4.76878945" id="Path-2" stroke="#CFDAE6" stroke-width="0.941176471"/>
          <ellipse id="Oval" stroke="#CFDAE6" stroke-width="0.941176471" cx="3.26271186" cy="3.29411765" rx="3.26271186" ry="3.29411765"/>
          <ellipse id="Oval-Copy" fill="#F7E1AD" cx="2.79661017" cy="61.1764706" rx="2.79661017" ry="2.82352941"/>
          <path d="M34.6312443,39.2922712 L5.06366663,59.785082" id="Path-10" stroke="#CFDAE6" stroke-width="0.941176471"/>
        </g>
        <g id="Group-19" opacity="0.33" transform="translate(1282.537219, 446.502867) rotate(-10.000000) translate(-1282.537219, -446.502867) translate(1142.537219, 327.502867)">
          <g id="Group-17" transform="translate(141.333539, 104.502742) rotate(275.000000) translate(-141.333539, -104.502742) translate(129.333539, 92.502742)" fill="#BACAD9">
            <circle id="Oval-4" opacity="0.45" cx="11.6666667" cy="11.6666667" r="11.6666667"/>
            <path d="M23.3333333,23.3333333 C23.3333333,16.8900113 18.1099887,11.6666667 11.6666667,11.6666667 C5.22334459,11.6666667 0,16.8900113 0,23.3333333 L23.3333333,23.3333333 Z" id="Oval-4" transform="translate(11.666667, 17.500000) scale(-1, -1) translate(-11.666667, -17.500000) "/>
          </g>
          <circle id="Oval-5-Copy-6" fill="#CFDAE6" cx="201.833333" cy="87.5" r="5.83333333"/>
          <path d="M143.5,88.8126685 L155.070501,17.6038544" id="Path-17" stroke="#BACAD9" stroke-width="1.16666667"/>
          <path d="M17.5,37.3333333 L127.466252,97.6449735" id="Path-18" stroke="#BACAD9" stroke-width="1.16666667"/>
          <polyline id="Path-19" stroke="#CFDAE6" stroke-width="1.16666667" points="143.902597 120.302281 174.935455 231.571342 38.5 147.510847 126.366941 110.833333"/>
          <path d="M159.833333,99.7453842 L195.416667,89.25" id="Path-20" stroke="#E0B4B7" stroke-width="1.16666667" opacity="0.6"/>
          <path d="M205.333333,82.1372105 L238.719406,36.1666667" id="Path-24" stroke="#BACAD9" stroke-width="1.16666667"/>
          <path d="M266.723424,132.231988 L207.083333,90.4166667" id="Path-25" stroke="#CFDAE6" stroke-width="1.16666667"/>
          <circle id="Oval-5" fill="#C1D1E0" cx="156.916667" cy="8.75" r="8.75"/>
          <circle id="Oval-5-Copy-3" fill="#C1D1E0" cx="39.0833333" cy="148.75" r="5.25"/>
          <circle id="Oval-5-Copy-2" fill-opacity="0.6" fill="#D1DEED" cx="8.75" cy="33.25" r="8.75"/>
          <circle id="Oval-5-Copy-4" fill-opacity="0.6" fill="#D1DEED" cx="243.833333" cy="30.3333333" r="5.83333333"/>
          <circle id="Oval-5-Copy-5" fill="#E0B4B7" cx="175.583333" cy="232.75" r="5.25"/>
        </g>
      </g>
    </g>
  </g>
  <path fill-rule="evenodd" clip-rule="evenodd" d="M 758.2 87.116 C 756.314 87.116 755.126 87.172 754.056 87.354 C 752.984 87.538 752.055 87.844 750.699 88.301 C 748.741 88.964 746.142 90.482 745.413 90.917 C 745.027 91.148 744.824 91.593 744.903 92.035 C 745.247 93.986 745.862 96.14 747.152 97.685 C 747.457 98.05 747.947 98.153 748.358 97.999 L 750.152 97.326 L 749.51 110.403 C 749.474 111.118 749.966 111.757 750.675 111.897 C 756.454 113.04 760.025 113.04 765.727 111.898 C 766.435 111.757 766.925 111.118 766.89 110.405 L 766.247 97.326 L 768.005 97.986 C 768.471 98.16 769.013 98 769.296 97.561 C 770.336 95.942 770.954 94.013 771.456 92.114 C 771.579 91.651 771.385 91.156 770.965 90.905 C 770.211 90.455 767.64 88.958 765.7 88.301 C 764.345 87.844 763.415 87.538 762.343 87.354 C 761.273 87.172 760.085 87.116 758.2 87.116 Z M 748.101 96.543 L 750.205 95.754 L 750.205 93.848 C 750.205 93.447 750.53 93.121 750.932 93.121 C 751.334 93.121 751.659 93.447 751.659 93.848 L 751.659 94.426 L 764.74 94.426 L 764.74 93.848 C 764.74 93.447 765.065 93.121 765.467 93.121 C 765.869 93.121 766.194 93.447 766.194 93.848 L 766.194 95.754 L 768.232 96.518 C 769.009 95.22 769.529 93.672 769.979 92.011 C 769.024 91.451 766.85 90.225 765.234 89.679 C 763.868 89.216 763.041 88.948 762.099 88.788 C 762.061 88.781 762.022 88.775 761.983 88.769 C 761.899 90.785 760.237 92.394 758.2 92.394 C 756.162 92.394 754.5 90.785 754.416 88.769 C 754.377 88.775 754.338 88.781 754.3 88.788 C 753.358 88.948 752.531 89.216 751.165 89.679 C 749.525 90.233 747.312 91.486 746.38 92.034 C 746.7 93.733 747.213 95.368 748.101 96.543 Z M 751.659 96.258 L 751.659 95.88 L 764.74 95.88 L 764.74 96.258 L 764.74 96.275 L 764.741 96.294 L 764.837 98.245 L 751.562 98.245 L 751.658 96.294 L 751.659 96.275 L 751.659 96.258 Z M 751.491 99.699 L 750.961 110.472 C 756.551 111.578 759.928 111.576 765.437 110.474 L 764.908 99.699 L 751.491 99.699 Z M 755.867 88.62 C 755.873 89.903 756.915 90.941 758.2 90.941 C 759.484 90.941 760.526 89.903 760.533 88.62 C 759.902 88.584 759.153 88.57 758.2 88.57 C 757.246 88.57 756.497 88.584 755.867 88.62 Z" style="fill-opacity: 0.25; fill: rgb(118, 133, 146);"/>
  <path fill-rule="evenodd" clip-rule="evenodd" d="M 946.659 323.927 C 946.659 323.124 947.31 322.473 948.113 322.473 L 965.535 322.473 C 966.338 322.473 966.988 323.124 966.988 323.927 L 966.988 325.646 L 971.728 325.646 C 972.147 325.646 972.546 325.827 972.822 326.143 L 975.372 329.057 C 975.604 329.322 975.732 329.662 975.732 330.014 L 975.732 336.945 C 975.732 337.748 975.081 338.399 974.278 338.399 L 973.627 338.399 C 973.622 340.424 971.979 342.064 969.953 342.064 C 968.633 342.064 967.476 341.368 966.828 340.323 L 957.08 340.323 C 956.432 341.368 955.275 342.064 953.955 342.064 C 951.926 342.064 950.281 340.419 950.281 338.39 C 950.281 338.301 950.284 338.213 950.29 338.126 L 948.113 338.126 C 947.31 338.126 946.659 337.475 946.659 336.672 L 946.659 323.927 Z M 974.278 336.945 L 973.332 336.945 C 972.771 335.634 971.469 334.716 969.953 334.716 C 968.736 334.716 967.657 335.308 966.988 336.219 L 966.988 327.1 L 971.728 327.1 L 974.278 330.014 L 974.278 336.945 Z M 966.262 338.126 L 966.288 338.126 C 966.282 338.213 966.279 338.301 966.279 338.39 C 966.279 338.552 966.29 338.712 966.31 338.869 L 957.598 338.869 C 957.618 338.712 957.629 338.552 957.629 338.39 C 957.629 338.301 957.626 338.213 957.619 338.126 L 966.262 338.126 Z M 965.535 336.672 L 957.203 336.672 C 956.587 335.508 955.363 334.716 953.955 334.716 C 952.546 334.716 951.323 335.508 950.706 336.672 L 948.113 336.672 L 948.113 323.927 L 965.535 323.927 L 965.535 336.672 Z M 967.84 328.71 C 967.84 328.329 968.149 328.02 968.53 328.02 L 971.142 328.02 C 971.345 328.02 971.537 328.109 971.668 328.263 L 973.18 330.045 C 973.286 330.169 973.344 330.328 973.344 330.491 L 973.344 331.439 C 973.344 331.82 973.035 332.13 972.653 332.13 L 968.53 332.13 C 968.149 332.13 967.84 331.82 967.84 331.439 L 967.84 328.71 Z M 969.148 329.328 L 969.148 330.821 L 972.036 330.821 L 972.036 330.718 L 970.856 329.328 L 969.148 329.328 Z M 953.955 336.17 C 952.729 336.17 951.735 337.164 951.735 338.39 C 951.735 339.616 952.729 340.61 953.955 340.61 C 955.181 340.61 956.175 339.616 956.175 338.39 C 956.175 337.164 955.181 336.17 953.955 336.17 Z M 953.989 339.449 C 954.561 339.449 955.024 338.985 955.024 338.413 C 955.024 337.841 954.561 337.377 953.989 337.377 C 953.417 337.377 952.953 337.841 952.953 338.413 C 952.953 338.985 953.417 339.449 953.989 339.449 Z M 969.953 336.17 C 968.727 336.17 967.733 337.164 967.733 338.39 C 967.733 339.616 968.727 340.61 969.953 340.61 C 971.179 340.61 972.173 339.616 972.173 338.39 C 972.173 337.164 971.179 336.17 969.953 336.17 Z M 969.953 339.449 C 970.525 339.449 970.989 338.985 970.989 338.413 C 970.989 337.841 970.525 337.377 969.953 337.377 C 969.381 337.377 968.917 337.841 968.917 338.413 C 968.917 338.985 969.381 339.449 969.953 339.449 Z" style="fill-opacity: 0.25; fill: rgb(118, 133, 146);"/>
  <path fill-rule="evenodd" clip-rule="evenodd" d="M 198.624 352.227 C 198.517 351.827 198.098 351.598 197.703 351.724 L 182.915 356.425 C 182.613 356.521 182.408 356.801 182.408 357.118 L 182.408 370.955 C 182.408 371.356 182.734 371.681 183.135 371.681 L 202.759 371.681 C 203.161 371.681 203.486 371.356 203.486 370.955 L 203.486 368.715 L 200.519 368.715 C 198.545 368.715 196.945 367.115 196.945 365.141 C 196.945 363.167 198.545 361.567 200.519 361.567 L 203.486 361.567 L 203.486 358.809 C 203.486 358.403 203.155 358.077 202.75 358.082 L 185.326 358.319 C 184.925 358.325 184.595 358.003 184.589 357.602 C 184.585 357.285 184.784 357.013 185.066 356.909 L 185.066 356.909 L 185.069 356.909 C 185.085 356.902 185.103 356.897 185.12 356.892 L 198.71 352.543 L 198.624 352.227 Z M 203.486 363.021 L 200.519 363.021 C 199.348 363.021 198.398 363.97 198.398 365.141 C 198.398 366.312 199.348 367.262 200.519 367.262 L 203.486 367.262 L 203.486 363.021 Z M 200.096 352.1 L 200.028 351.849 C 199.705 350.649 198.446 349.962 197.262 350.338 L 182.475 355.04 C 181.57 355.328 180.955 356.168 180.955 357.118 L 180.955 370.955 C 180.955 372.159 181.931 373.135 183.135 373.135 L 202.759 373.135 C 203.964 373.135 204.94 372.159 204.94 370.955 L 204.94 358.809 C 204.94 357.727 204.153 356.831 203.123 356.658 L 203.123 355.766 C 203.123 355.07 202.638 354.502 202.005 354.351 L 201.947 353.408 C 201.889 352.477 200.984 351.844 200.096 352.1 Z M 200.556 354.468 L 200.496 353.497 L 194.562 355.396 L 200.556 354.468 Z M 201.669 356.643 L 195.467 356.727 L 201.669 355.766 L 201.669 356.643 Z M 201.373 365.141 C 201.373 365.643 200.966 366.049 200.464 366.049 C 199.963 366.049 199.556 365.643 199.556 365.141 C 199.556 364.639 199.963 364.232 200.464 364.232 C 200.966 364.232 201.373 364.639 201.373 365.141 Z" style="fill-opacity: 0.25; fill: rgb(118, 133, 146);"/>
  <path fill-rule="evenodd" clip-rule="evenodd" d="M 518.89 488.938 C 518.98 488.209 519.599 487.661 520.333 487.661 L 527.526 487.661 C 528.261 487.661 528.88 488.209 528.969 488.938 L 529.706 494.936 C 530.99 496.071 531.937 497.579 532.377 499.29 L 533.031 499.29 C 533.834 499.29 534.485 499.941 534.485 500.744 L 534.485 502.198 C 534.485 503.001 533.834 503.651 533.031 503.651 L 532.377 503.651 C 531.937 505.362 530.99 506.87 529.706 508.006 L 528.969 514.004 C 528.88 514.733 528.261 515.28 527.526 515.28 L 520.333 515.28 C 519.599 515.28 518.98 514.733 518.89 514.004 L 518.154 508.006 C 516.347 506.408 515.208 504.072 515.208 501.471 C 515.208 498.87 516.347 496.534 518.154 494.936 L 518.89 488.938 Z M 532.652 501.471 C 532.652 501.226 532.642 500.984 532.622 500.744 L 533.031 500.744 L 533.031 502.198 L 532.622 502.198 C 532.642 501.958 532.652 501.716 532.652 501.471 Z M 519.757 509.131 L 520.333 513.827 L 527.526 513.827 L 528.103 509.131 C 526.863 509.808 525.442 510.193 523.93 510.193 C 522.418 510.193 520.996 509.808 519.757 509.131 Z M 527.526 489.115 L 528.103 493.81 C 526.863 493.133 525.442 492.749 523.93 492.749 C 522.418 492.749 520.996 493.133 519.757 493.81 L 520.333 489.115 L 527.526 489.115 Z M 523.93 494.203 C 519.916 494.203 516.662 497.457 516.662 501.471 C 516.662 505.485 519.916 508.739 523.93 508.739 C 527.944 508.739 531.198 505.485 531.198 501.471 C 531.198 497.457 527.944 494.203 523.93 494.203 Z M 524.657 497.11 L 524.657 501.082 L 527.603 503.047 L 526.797 504.256 L 523.527 502.076 L 523.203 501.86 L 523.203 501.471 L 523.203 497.11 L 524.657 497.11 Z" style="fill-opacity: 0.25; fill: rgb(118, 133, 146);"/>
</svg>